SplineFontDB: 3.2
FontName: AurebeshSheev-BETA
FullName: Aurebesh Sheev BETA
FamilyName: AurebeshSheev
Weight: BETA
Copyright: CC-0 Public Domain
Version: 1
ItalicAngle: 0
UnderlinePosition: 0
UnderlineWidth: 0
Ascent: 800
Descent: 200
InvalidEm: 0
sfntRevision: 0x00010000
LayerCount: 2
Layer: 0 0 "Back" 1
Layer: 1 0 "Fore" 0
XUID: [1021 178 1911899458 21746]
StyleMap: 0x0040
FSType: 8
OS2Version: 3
OS2_WeightWidthSlopeOnly: 0
OS2_UseTypoMetrics: 0
CreationTime: 1584758657
ModificationTime: 1589917801
PfmFamily: 17
TTFWeight: 400
TTFWidth: 5
LineGap: 90
VLineGap: 0
Panose: 2 0 5 3 0 0 0 0 0 0
OS2TypoAscent: 800
OS2TypoAOffset: 0
OS2TypoDescent: -200
OS2TypoDOffset: 0
OS2TypoLinegap: 90
OS2WinAscent: 813
OS2WinAOffset: 0
OS2WinDescent: 166
OS2WinDOffset: 0
HheadAscent: 813
HheadAOffset: 0
HheadDescent: -166
HheadDOffset: 0
OS2SubXSize: 650
OS2SubYSize: 699
OS2SubXOff: 0
OS2SubYOff: 140
OS2SupXSize: 650
OS2SupYSize: 699
OS2SupXOff: 0
OS2SupYOff: 479
OS2StrikeYSize: 49
OS2StrikeYPos: 258
OS2CapHeight: 740
OS2XHeight: 640
OS2Vendor: 'PfEd'
OS2CodePages: 00000001.00000000
OS2UnicodeRanges: 00000023.00000000.00000000.00000000
MarkAttachClasses: 1
DEI: 91125
LangName: 1033 "" "" "" "FontForge 2.0 : Aurebesh Sheev BETA : 19-5-2020" "" "" "" "" "" "" "" "" "" "" "" "" "Aurebesh_Sheev"
Encoding: UnicodeBmp
UnicodeInterp: none
NameList: AGL For New Fonts
DisplaySize: -72
AntiAlias: 1
FitToEm: 0
WinInfo: 64 8 2
BeginPrivate: 6
BlueValues 33 [-53 -39 638 642 640 640 740 740]
BlueShift 2 18
StdHW 4 [41]
StdVW 4 [80]
StemSnapH 32 [32 36 41 48 54 60 70 76 80 198]
StemSnapV 34 [51 60 65 70 76 80 92 100 137 156]
EndPrivate
BeginChars: 65536 84

StartChar: ltr33
Encoding: 33 33 2
Width: 340
GlyphClass: 2
Flags: W
LayerCount: 2
Fore
SplineSet
238 382 m 2
 75 256 l 1
 44 240 68 193 99 210 c 2
 282 316 l 2
 327 345 282 412 238 382 c 2
238 615 m 2
 75 489 l 1
 44 473 68 426 99 443 c 2
 282 549 l 2
 327 578 282 645 238 615 c 2
EndSplineSet
EndChar

StartChar: ltr34
Encoding: 34 34 3
Width: 340
GlyphClass: 2
Flags: W
LayerCount: 2
Fore
SplineSet
102 686 m 1
 135 568 l 2
 145 533 201 533 211 568 c 2
 244 686 l 1
 262 723 207 750 188 714 c 2
 173 680 l 1
 158 714 l 2
 139 750 84 723 102 686 c 1
EndSplineSet
EndChar

StartChar: ltr35
Encoding: 35 35 4
Width: 340
GlyphClass: 2
Flags: MW
HStem: 272 42<73 87> 382 40.2717
VStem: 133 80<89.5 272.729 116 272.266 422.734 582 422.734 422.734>
LayerCount: 2
Fore
SplineSet
87 382 m 2
 260 382 l 2
 287 382 287 422 260 422 c 2
 213 422.271484375 l 1
 213 582 l 2
 213 635 133 635 133 582 c 2
 133 422.734375 l 1
 87 423 l 2
 60 423 60 382 87 382 c 2
133 272.265625 m 1
 133 116 l 2
 133 63 213 63 213 116 c 2
 213 272.728515625 l 1
 260 273 l 2
 287 273 287 314 260 314 c 2
 87 314 l 2
 59 314 59 272 87 272 c 2
 133 272.265625 l 1
EndSplineSet
EndChar

StartChar: ltr36
Encoding: 36 36 5
Width: 340
GlyphClass: 2
Flags: MW
HStem: 581.365 37.5073 591.133 32.6632 618.31 21G
VStem: 65 60<618.812 618.812 618.812 646> 91 78 133 60<623.797 647 581.999 647 581.999 618.872>
LayerCount: 2
Fore
SplineSet
65 618.811523438 m 1x34
 59.986328125 619.3671875 54.9853515625 620.084960938 50 620.998046875 c 0
 23 630.998046875 9 589.998046875 36 580.998046875 c 0
 45.9326171875 579.087890625 55.81640625 577.956054688 65.5859375 577.420898438 c 1
 71.5673828125 545.278320312 121.39453125 546.216796875 124.815429688 580.236328125 c 0
 127.569335938 580.59375 130.299804688 580.970703125 133.004882812 581.36328125 c 1x94
 133.63671875 542 193 542.211914062 193 581.999023438 c 2
 193 591.1328125 l 1x54
 206.848632812 593.001953125 219.014648438 593.747070312 229 592 c 1
 164 502 111 246 91 123 c 0
 82 70 161 57 169 109 c 0x48
 189 224 226 466 292 559 c 0
 309 582 295 616 267 621 c 0
 242.499023438 625.423828125 217.766601562 625.33203125 193 623.796875 c 1x44
 193 647 l 2
 193 687 133 687 133 647 c 2
 133 618.872070312 l 2x84
 130.33203125 618.670898438 127.665039062 618.482421875 125 618.309570312 c 1
 125 646 l 2
 125 686 65 686 65 646 c 2
 65 618.811523438 l 1x34
EndSplineSet
EndChar

StartChar: ltr38
Encoding: 38 38 6
Width: 540
GlyphClass: 2
Flags: MW
HStem: 81 70 562 40<313.001 352.996 352.996 352.996 412.995 460>
VStem: 113 60<582 602> 352 60.2443
LayerCount: 2
Fore
SplineSet
113 582 m 0
 114 386 141.000976562 174 191.000976562 -11 c 0
 201.000976562 -44 252.000976562 -48 267.000976562 -16 c 0
 323.000976562 110 260.000976562 546 313.000976562 562 c 1
 352.99609375 562 l 1
 352 -10.0009765625 l 2
 352 -50.0009765625 412 -50.0009765625 412 -10.0009765625 c 2
 412.012695312 -2.828125 l 2
 415.060546875 39.111328125 437.033203125 80 461 80.9990234375 c 0
 508 82.9990234375 505 152.999023438 459 150.999023438 c 0
 443.825195312 150.654296875 427.4609375 143.41015625 412.245117188 130.45703125 c 1
 412.995117188 562 l 1
 460 562 l 2
 487 562 487 602 460 602 c 2
 307 602 l 2
 303 602 300 602 296 600 c 0
 246 586 278 166 239 78 c 1
 209 186 174 392 173 582 c 0
 173 622 113 622 113 582 c 0
EndSplineSet
EndChar

StartChar: ltr39
Encoding: 39 39 7
Width: 201
GlyphClass: 2
Flags: MW
VStem: 11 58<575 589>
LayerCount: 2
Fore
SplineSet
22 707 m 1
 11 589 l 1
 1 550 60 536 69 575 c 2
 100 693 l 2
 110 745 31 760 22 707 c 1
EndSplineSet
EndChar

StartChar: ltr40
Encoding: 40 40 8
Width: 340
GlyphClass: 2
Flags: MW
HStem: 319 60<87 220>
VStem: 220 80<-26.5 700 0 319 379 379 379 700>
LayerCount: 2
Fore
SplineSet
220 319 m 1
 220 0 l 2
 220 -53 300 -53 300 0 c 2
 300 700 l 2
 300 753 220 753 220 700 c 2
 220 379 l 1
 87 379 l 2
 47 379 47 319 87 319 c 2
 220 319 l 1
EndSplineSet
EndChar

StartChar: ltr41
Encoding: 41 41 9
Width: 340
GlyphClass: 2
Flags: MW
HStem: 319 60<127 260 127 280>
VStem: 47 80<-26.5 319 0 319 379 700>
LayerCount: 2
Fore
SplineSet
47 700 m 2
 47 0 l 2
 47 -53 127 -53 127 0 c 2
 127 319 l 1
 260 319 l 2
 300 319 300 379 260 379 c 2
 127 379 l 1
 127 700 l 2
 127 753 47 753 47 700 c 2
EndSplineSet
EndChar

StartChar: ltr44
Encoding: 44 44 10
Width: 340
GlyphClass: 2
Flags: MW
VStem: 90 80<-26.5 116 0 116>
LayerCount: 2
Fore
SplineSet
90 116 m 2
 90 0 l 2
 90 -53 170 -53 170 0 c 2
 170 116 l 2
 170 169 90 169 90 116 c 2
EndSplineSet
EndChar

StartChar: ltr45
Encoding: 45 45 11
Width: 340
GlyphClass: 2
Flags: MW
HStem: 557 50<113.5 130>
LayerCount: 2
Fore
SplineSet
130 557 m 2
 260 552 l 2
 300 552 300 612 260 612 c 2
 130 607 l 2
 97 607 97 557 130 557 c 2
EndSplineSet
EndChar

StartChar: ltr46
Encoding: 46 46 12
Width: 340
GlyphClass: 2
Flags: MW
VStem: 90 80<-26.5 116 0 116> 220 80<-26.5 116 0 116>
LayerCount: 2
Fore
SplineSet
220 116 m 2
 220 0 l 2
 220 -53 300 -53 300 0 c 2
 300 116 l 2
 300 169 220 169 220 116 c 2
90 116 m 2
 90 0 l 2
 90 -53 170 -53 170 0 c 2
 170 116 l 2
 170 169 90 169 90 116 c 2
EndSplineSet
EndChar

StartChar: ltr48
Encoding: 48 48 13
Width: 440
GlyphClass: 2
Flags: MW
HStem: 542 198<114 170 103 181>
VStem: 74 136<571 700 582 700>
LayerCount: 2
Fore
SplineSet
74 700 m 2
 74 582 l 2
 74 560 92 542 114 542 c 2
 170 542 l 2
 192 542 210 560 210 582 c 2
 210 700 l 2
 210 722 192 740 170 740 c 2
 114 740 l 2
 92 740 74 722 74 700 c 2
EndSplineSet
EndChar

StartChar: ltr49
Encoding: 49 49 14
Width: 440
GlyphClass: 2
Flags: MW
HStem: 542 198<114 170 103 181 283 340>
VStem: 74 136<571 700 582 700> 243 137<571 700 582 700>
LayerCount: 2
Fore
SplineSet
243 700 m 2
 243 582 l 2
 243 560 261 542 283 542 c 2
 340 542 l 2
 362 542 380 560 380 582 c 2
 380 700 l 2
 380 722 362 740 340 740 c 2
 283 740 l 2
 261 740 243 722 243 700 c 2
74 700 m 2
 74 582 l 2
 74 560 92 542 114 542 c 2
 170 542 l 2
 192 542 210 560 210 582 c 2
 210 700 l 2
 210 722 192 740 170 740 c 2
 114 740 l 2
 92 740 74 722 74 700 c 2
EndSplineSet
EndChar

StartChar: ltr50
Encoding: 50 50 15
Width: 440
GlyphClass: 2
Flags: MW
HStem: 542 198<114 170 103 181 283 340>
VStem: 74 136<571 700 582 700> 243 137<338 466 349 466 349 582 582 700>
LayerCount: 2
Fore
SplineSet
243 466 m 2
 243 349 l 2
 243 327 261 309 283 309 c 2
 340 309 l 2
 362 309 380 327 380 349 c 2
 380 466 l 2
 380 488 362 506 340 506 c 2
 283 506 l 2
 261 506 243 488 243 466 c 2
243 700 m 2
 243 582 l 2
 243 560 261 542 283 542 c 2
 340 542 l 2
 362 542 380 560 380 582 c 2
 380 700 l 2
 380 722 362 740 340 740 c 2
 283 740 l 2
 261 740 243 722 243 700 c 2
74 700 m 2
 74 582 l 2
 74 560 92 542 114 542 c 2
 170 542 l 2
 192 542 210 560 210 582 c 2
 210 700 l 2
 210 722 192 740 170 740 c 2
 114 740 l 2
 92 740 74 722 74 700 c 2
EndSplineSet
EndChar

StartChar: ltr51
Encoding: 51 51 16
Width: 440
GlyphClass: 2
Flags: MW
HStem: 542 198<114 170 103 181 283 340>
VStem: 74 136<571 700 582 700> 243 137<105 233 116 233 116 349 349 466 582 700>
LayerCount: 2
Fore
SplineSet
243 233 m 2
 243 116 l 2
 243 94 261 76 283 76 c 2
 340 76 l 2
 362 76 380 94 380 116 c 2
 380 233 l 2
 380 255 362 273 340 273 c 2
 283 273 l 2
 261 273 243 255 243 233 c 2
243 466 m 2
 243 349 l 2
 243 327 261 309 283 309 c 2
 340 309 l 2
 362 309 380 327 380 349 c 2
 380 466 l 2
 380 488 362 506 340 506 c 2
 283 506 l 2
 261 506 243 488 243 466 c 2
243 700 m 2
 243 582 l 2
 243 560 261 542 283 542 c 2
 340 542 l 2
 362 542 380 560 380 582 c 2
 380 700 l 2
 380 722 362 740 340 740 c 2
 283 740 l 2
 261 740 243 722 243 700 c 2
74 700 m 2
 74 582 l 2
 74 560 92 542 114 542 c 2
 170 542 l 2
 192 542 210 560 210 582 c 2
 210 700 l 2
 210 722 192 740 170 740 c 2
 114 740 l 2
 92 740 74 722 74 700 c 2
EndSplineSet
EndChar

StartChar: ltr52
Encoding: 52 52 17
Width: 440
GlyphClass: 2
Flags: MW
VStem: 74 136<338 700 349 700> 243 137<571 700 582 700>
LayerCount: 2
Fore
SplineSet
243 700 m 2
 243 582 l 2
 243 560 261 542 283 542 c 2
 340 542 l 2
 362 542 380 560 380 582 c 2
 380 700 l 2
 380 722 362 740 340 740 c 2
 283 740 l 2
 261 740 243 722 243 700 c 2
74 700 m 2
 74 349 l 2
 74 327 92 309 114 309 c 2
 170 309 l 2
 192 309 210 327 210 349 c 2
 210 700 l 2
 210 722 192 740 170 740 c 2
 114 740 l 2
 92 740 74 722 74 700 c 2
EndSplineSet
EndChar

StartChar: ltr53
Encoding: 53 53 18
Width: 440
GlyphClass: 2
Flags: MW
VStem: 74 136<338 700 349 700> 243 137<338 466 349 466 349 582 582 700>
LayerCount: 2
Fore
SplineSet
243 466 m 2
 243 349 l 2
 243 327 261 309 283 309 c 2
 340 309 l 2
 362 309 380 327 380 349 c 2
 380 466 l 2
 380 488 362 506 340 506 c 2
 283 506 l 2
 261 506 243 488 243 466 c 2
243 700 m 2
 243 582 l 2
 243 560 261 542 283 542 c 2
 340 542 l 2
 362 542 380 560 380 582 c 2
 380 700 l 2
 380 722 362 740 340 740 c 2
 283 740 l 2
 261 740 243 722 243 700 c 2
74 700 m 2
 74 349 l 2
 74 327 92 309 114 309 c 2
 170 309 l 2
 192 309 210 327 210 349 c 2
 210 700 l 2
 210 722 192 740 170 740 c 2
 114 740 l 2
 92 740 74 722 74 700 c 2
EndSplineSet
EndChar

StartChar: ltr54
Encoding: 54 54 19
Width: 440
GlyphClass: 2
Flags: MW
VStem: 74 136<338 700 349 700> 243 137<105 233 116 233 116 349 349 466 582 700>
LayerCount: 2
Fore
SplineSet
243 233 m 2
 243 116 l 2
 243 94 261 76 283 76 c 2
 340 76 l 2
 362 76 380 94 380 116 c 2
 380 233 l 2
 380 255 362 273 340 273 c 2
 283 273 l 2
 261 273 243 255 243 233 c 2
243 466 m 2
 243 349 l 2
 243 327 261 309 283 309 c 2
 340 309 l 2
 362 309 380 327 380 349 c 2
 380 466 l 2
 380 488 362 506 340 506 c 2
 283 506 l 2
 261 506 243 488 243 466 c 2
243 700 m 2
 243 582 l 2
 243 560 261 542 283 542 c 2
 340 542 l 2
 362 542 380 560 380 582 c 2
 380 700 l 2
 380 722 362 740 340 740 c 2
 283 740 l 2
 261 740 243 722 243 700 c 2
74 700 m 2
 74 349 l 2
 74 327 92 309 114 309 c 2
 170 309 l 2
 192 309 210 327 210 349 c 2
 210 700 l 2
 210 722 192 740 170 740 c 2
 114 740 l 2
 92 740 74 722 74 700 c 2
EndSplineSet
EndChar

StartChar: ltr55
Encoding: 55 55 20
Width: 440
GlyphClass: 2
Flags: MW
VStem: 74 136<105 700 116 700> 243 137<571 700 582 700>
LayerCount: 2
Fore
SplineSet
243 700 m 2
 243 582 l 2
 243 560 261 542 283 542 c 2
 340 542 l 2
 362 542 380 560 380 582 c 2
 380 700 l 2
 380 722 362 740 340 740 c 2
 283 740 l 2
 261 740 243 722 243 700 c 2
74 700 m 2
 74 116 l 2
 74 94 92 76 114 76 c 2
 170 76 l 2
 192 76 210 94 210 116 c 2
 210 700 l 2
 210 722 192 740 170 740 c 2
 114 740 l 2
 92 740 74 722 74 700 c 2
EndSplineSet
EndChar

StartChar: ltr56
Encoding: 56 56 21
Width: 440
GlyphClass: 2
Flags: MW
VStem: 74 136<105 700 116 700> 243 137<338 466 349 466 349 582 582 700>
LayerCount: 2
Fore
SplineSet
243 466 m 2
 243 349 l 2
 243 327 261 309 283 309 c 2
 340 309 l 2
 362 309 380 327 380 349 c 2
 380 466 l 2
 380 488 362 506 340 506 c 2
 283 506 l 2
 261 506 243 488 243 466 c 2
243 700 m 2
 243 582 l 2
 243 560 261 542 283 542 c 2
 340 542 l 2
 362 542 380 560 380 582 c 2
 380 700 l 2
 380 722 362 740 340 740 c 2
 283 740 l 2
 261 740 243 722 243 700 c 2
74 700 m 2
 74 116 l 2
 74 94 92 76 114 76 c 2
 170 76 l 2
 192 76 210 94 210 116 c 2
 210 700 l 2
 210 722 192 740 170 740 c 2
 114 740 l 2
 92 740 74 722 74 700 c 2
EndSplineSet
EndChar

StartChar: ltr57
Encoding: 57 57 22
Width: 440
GlyphClass: 2
Flags: MW
VStem: 74 136<105 700 116 700> 243 137<105 233 116 233 116 349 349 466 582 700>
LayerCount: 2
Fore
SplineSet
243 233 m 2
 243 116 l 2
 243 94 261 76 283 76 c 2
 340 76 l 2
 362 76 380 94 380 116 c 2
 380 233 l 2
 380 255 362 273 340 273 c 2
 283 273 l 2
 261 273 243 255 243 233 c 2
243 466 m 2
 243 349 l 2
 243 327 261 309 283 309 c 2
 340 309 l 2
 362 309 380 327 380 349 c 2
 380 466 l 2
 380 488 362 506 340 506 c 2
 283 506 l 2
 261 506 243 488 243 466 c 2
243 700 m 2
 243 582 l 2
 243 560 261 542 283 542 c 2
 340 542 l 2
 362 542 380 560 380 582 c 2
 380 700 l 2
 380 722 362 740 340 740 c 2
 283 740 l 2
 261 740 243 722 243 700 c 2
74 700 m 2
 74 116 l 2
 74 94 92 76 114 76 c 2
 170 76 l 2
 192 76 210 94 210 116 c 2
 210 700 l 2
 210 722 192 740 170 740 c 2
 114 740 l 2
 92 740 74 722 74 700 c 2
EndSplineSet
EndChar

StartChar: ltr58
Encoding: 58 58 23
Width: 340
GlyphClass: 2
Flags: MW
HStem: -30 60<87 209>
LayerCount: 2
Fore
SplineSet
66 334 m 0
 142 238 191 106 209 30 c 1
 87 30 l 2
 47 30 47 -30 87 -30 c 2
 260 -30 l 2
 285 -30 305 -5 299 19 c 0
 271 138 188 264 108 364 c 0
 88 392 46 362 66 334 c 0
EndSplineSet
EndChar

StartChar: ltr59
Encoding: 59 59 24
Width: 340
GlyphClass: 2
Flags: MW
VStem: 90 80<-26.5 700 0 700>
LayerCount: 2
Fore
SplineSet
90 700 m 2
 90 0 l 2
 90 -53 170 -53 170 0 c 2
 170 700 l 2
 170 753 90 753 90 700 c 2
EndSplineSet
EndChar

StartChar: ltr63
Encoding: 63 63 25
Width: 340
GlyphClass: 2
Flags: MW
HStem: 698 42<163.458 172 172 173 163.458 194.5>
VStem: 47 80 235 65<410 466 403 549>
LayerCount: 2
Fore
SplineSet
120.614257812 722.795898438 m 1
 101.654296875 751.405273438 47 743.806640625 47 700 c 2
 47 585 l 1
 47 582 l 2
 47 539 124 536 127 579 c 0
 129 612 131 698 173 698 c 0
 216 698 235 632 235 466 c 0
 235 354 250 123 123 10 c 0
 97 -12 130 -52 157 -30 c 0
 295 94 300 340 300 466 c 0
 301 736 217 740 173 740 c 2
 172 740 l 2
 154.916992188 740 137.182617188 733.858398438 120.614257812 722.795898438 c 1
EndSplineSet
EndChar

StartChar: ltr65
Encoding: 65 65 26
Width: 500
GlyphClass: 2
Flags: MW
HStem: 279 40<110 269.5 190 269.5 139 274.5> 359 40
VStem: 110 80<-26.5 279 0 279> 410 80<-26.5 86.5>
LayerCount: 2
Fore
SplineSet
190 0 m 2
 190 279 l 1
 359 279 410 173 410 0 c 0
 410 -53 490 -53 490 0 c 0
 490 227 389 319 150 319 c 0
 128 319 110 301 110 279 c 2
 110 0 l 2
 110 -53 190 -53 190 0 c 2
-20 565 m 0
 31.0703125 536.2421875 75.255859375 528.627929688 109.999023438 533.744140625 c 1
 109.999023438 399.000976562 l 2
 109.999023438 377.000976562 127.999023438 359.000976562 149.999023438 359.000976562 c 0
 418.999023438 359.000976562 489.999023438 484.000976562 489.999023438 600.000976562 c 0
 489.999023438 653.000976562 409.999023438 653.000976562 409.999023438 600.000976562 c 0
 409.999023438 512.000976562 373.999023438 399.000976562 189.999023438 399.000976562 c 1
 189.999023438 595.379882812 l 2
 191.830078125 605.759765625 189.059570312 615.282226562 183.564453125 622.868164062 c 0
 179.551757812 628.890625 173.954101562 633.301757812 167.620117188 636.1015625 c 0
 156.33203125 641.571289062 142.693359375 642.215820312 131.094726562 635.5078125 c 0
 122.655273438 631.41796875 115.673828125 624.37109375 112.258789062 614.3671875 c 0
 96.2412109375 592.197265625 61.7548828125 566.940429688 1 601 c 0
 -23 615 -44 579 -20 565 c 0
EndSplineSet
EndChar

StartChar: ltr66
Encoding: 66 66 27
Width: 470
GlyphClass: 2
Flags: MW
HStem: -40 41<187.501 224.001 224.001 225.001 187.501 270.001> 279 40<240.001 306.751 240.001 306.751> 597 43<217.838 224.001 224.001 225.001 217.838 261.501>
VStem: 35 80 334 80 410 80
LayerCount: 2
Fore
SplineSet
-20 565 m 0xf8
 18.173828125 543.423828125 53.9375 545.778320312 88.076171875 555.919921875 c 1
 56.33984375 512.565429688 35.0009765625 456.743164062 35.0009765625 399 c 0
 35.0009765625 320.899414062 72.2373046875 293.615234375 149.608398438 284.09375 c 1
 76.2998046875 244.515625 35.0009765625 175.474609375 35.0009765625 99 c 0
 35.0009765625 -26 120.000976562 -40 225.000976562 -40 c 0
 315.000976562 -40 490.000976562 81 490.000976562 200 c 0
 490.000976562 253 410.000976562 253 410.000976562 200 c 0xf4
 410.000976562 117 300.000976562 1 225.000976562 1 c 2
 224.000976562 1 l 2
 151.000976562 1 115.000976562 26 115.000976562 99 c 0
 115.000976562 182 165.000976562 279 300.000976562 279 c 0
 313.500976562 279 320.250976562 289 320.250976562 299 c 0
 320.250976562 309 313.500976562 319 300.000976562 319 c 0
 180.000976562 319 115.000976562 317 115.000976562 399 c 0
 115.000976562 472 151.000976562 597 225.000976562 597 c 0
 298.000976562 597 334.000976562 573 334.000976562 498 c 0
 334.000976562 445 414.000976562 445 414.000976562 498 c 0
 414.000976562 627 329.000976562 640 225.000976562 640 c 2
 224.000976562 640 l 2
 211.67578125 640 199.139648438 637.775390625 186.6875 633.610351562 c 0
 125.983398438 615.961914062 55.0947265625 569.854492188 1 601 c 0
 -23 615 -44 579 -20 565 c 0xf8
EndSplineSet
EndChar

StartChar: ltr67
Encoding: 67 67 28
Width: 490
GlyphClass: 2
Flags: MW
VStem: 110 80 273 80 435 70
LayerCount: 2
Fore
SplineSet
-19 565 m 0
 39.6435546875 534.111328125 80.25390625 543.502929688 110.001953125 567.787109375 c 1
 110.001953125 199.999023438 l 2
 110.001953125 146.999023438 190.001953125 146.999023438 190.001953125 199.999023438 c 2
 190.001953125 550.934570312 l 1
 250.901367188 582.407226562 278.001953125 577.591796875 278.001953125 535 c 2
 273.001953125 200 l 2
 273.001953125 147 353.001953125 147 353.001953125 200 c 2
 348.001953125 535 l 2
 348.001953125 539.635742188 347.881835938 544.057617188 347.645507812 548.272460938 c 0
 410.7265625 582.772460938 435.001953125 579.693359375 435.001953125 535 c 0
 435.001953125 281 421.001953125 21 430.001953125 -103 c 0
 434.001953125 -156 514.001953125 -150 510.001953125 -97 c 0
 501.001953125 25 505.001953125 283 505.001953125 535 c 0
 505.001953125 662.935546875 416.896484375 628.784179688 340.518554688 586.983398438 c 1
 318.66015625 646.47265625 252.497070312 624.415039062 190.000976562 592.63671875 c 1
 190.000976562 692.9609375 l 2
 191.501953125 700.96484375 190.240234375 708.54296875 187.078125 715.162109375 c 0
 182.2265625 727.340820312 171.891601562 734.803710938 160.3203125 737.55078125 c 0
 149.501953125 740.771484375 137.505859375 739.71875 127.42578125 732.481445312 c 0
 117.26953125 726.13671875 110 714.9765625 110 699 c 2
 110 696.489257812 l 1
 101.0859375 649.411132812 84.8232421875 556.670898438 1 601 c 0
 -24 614 -43 577 -19 565 c 0
EndSplineSet
EndChar

StartChar: D
Encoding: 68 68 29
Width: 500
GlyphClass: 2
Flags: MW
HStem: -140 41<224 224> 251 44
VStem: 110 80 343 51
LayerCount: 2
Fore
SplineSet
284.268554688 254.701171875 m 1
 328.838867188 232.009765625 343 180.387695312 343 120 c 0
 343 21 274 -100 226 -99 c 2
 224 -99 l 2
 190 -100 164 -53 178 -12 c 1
 178 -11 l 1
 208.508789062 85.8154296875 244.313476562 173.530273438 284.268554688 254.701171875 c 1
308.602539062 302.397460938 m 1
 360.94140625 401.46484375 419.502929688 490.9609375 482 575.998046875 c 0
 507.5078125 610.274414062 471.381835938 647.727539062 439.97265625 639.734375 c 1
 374.475585938 636.256835938 347.328125 599.799804688 253 615.997070312 c 0
 216 623.997070312 204 626.997070312 160 638.997070312 c 0
 135 644.997070312 110 625.997070312 110 599.997070312 c 2
 110 580.129882812 l 1
 73.3056640625 582.661132812 32.9111328125 571.791015625 1 600.998046875 c 0
 -19 618.998046875 -47 588.998046875 -27 569.998046875 c 0
 23.560546875 524.39453125 79.0361328125 581.0078125 111.16796875 488.444335938 c 0
 112.756835938 481.6484375 115.880859375 476.0390625 120.002929688 471.616210938 c 0
 130.838867188 458.974609375 147.6328125 456.296875 162.107421875 460.9140625 c 0
 170.537109375 463.299804688 178.174804688 468.25 183.317382812 475.763671875 c 0
 188.79296875 483.163085938 191.639648438 492.6875 189.999023438 503.736328125 c 2
 189.999023438 586.999023438 l 1
 193.999023438 585.999023438 206.999023438 583.999023438 236.999023438 577.999023438 c 1
 237.999023438 577.999023438 l 1
 314.041992188 564.297851562 349.25390625 575.000976562 388.647460938 583.1015625 c 1
 330.64453125 500.213867188 278.333984375 412.622070312 231.715820312 317.047851562 c 1
 197.392578125 316.755859375 156.4921875 309.720703125 107.999023438 295 c 1
 78.9990234375 278 103.999023438 234 133.999023438 251 c 1
 161.989257812 259.547851562 186.467773438 264.471679688 207.826171875 266.256835938 c 1
 172.271484375 187.819335938 140.329101562 103.953125 111.999023438 13 c 0
 73.9990234375 -99 172.999023438 -142 224.999023438 -140 c 0
 282.999023438 -141 393.999023438 -15 393.999023438 100 c 0
 393.999023438 198.587890625 372.391601562 272.431640625 308.602539062 302.397460938 c 1
EndSplineSet
EndChar

StartChar: E
Encoding: 69 69 30
Width: 570
GlyphClass: 2
Flags: MW
HStem: 560 80<356.893 556.5>
VStem: 397 70<-23.5 0> 400 79.9308
LayerCount: 2
Fore
SplineSet
400 574 m 2xa0
 397 0 l 2
 397 -47 467 -47 467 0 c 2xc0
 479.930664062 570.944335938 l 1
 530 560 l 1
 583 560 583 640 530 640 c 2
 356.892578125 640 l 2
 350.274414062 643.446289062 341.971679688 643.646484375 334 638 c 0
 267 614 224 132 190 97 c 1
 190 593.9609375 l 2
 191.500976562 601.96484375 190.239257812 609.541992188 187.077148438 616.161132812 c 0
 182.225585938 628.33984375 171.890625 635.802734375 160.319335938 638.549804688 c 0
 149.500976562 641.770507812 137.504882812 640.717773438 127.424804688 633.48046875 c 0
 121.266601562 629.633789062 116.169921875 624.016601562 113.111328125 616.62890625 c 0
 96.83203125 593.314453125 63.0654296875 566.206054688 1 601 c 0
 -23 615 -44 579 -20 565 c 0
 30.6201171875 536.432617188 74.9609375 528.96484375 110 534.162109375 c 1
 110 0 l 2
 110 -33 155 -52 178 -28 c 0
 269.795898438 63.7958984375 282.438476562 550.405273438 354.690429688 598.319335938 c 1
 402.120117188 587.952148438 l 1
 400.755859375 583.801757812 400 579.151367188 400 574 c 2xa0
EndSplineSet
EndChar

StartChar: F
Encoding: 70 70 31
Width: 470
GlyphClass: 2
Flags: MW
HStem: -40 41 298.023 43.1336
VStem: 35 80<214.501 299.001 214.501 310.001> 410 80<158.501 226.501>
LayerCount: 2
Fore
SplineSet
-20 565 m 0
 37.1298828125 532.982421875 123.032226562 530.918945312 185.000976562 543.962890625 c 1
 185.000976562 341.157226562 l 1
 75 339.000976562 l 2
 53 339.000976562 35 321.000976562 35 299.000976562 c 0
 35 8.0009765625 55 -39.9990234375 240 -39.9990234375 c 0
 315 -39.9990234375 490 81.0009765625 490 200.000976562 c 0
 490 253.000976562 410 253.000976562 410 200.000976562 c 0
 410 117.000976562 300 1.0009765625 225 1.0009765625 c 0
 76 1.0009765625 115 130.000976562 115 299.000976562 c 1
 185 298.024414062 l 1
 185 69.0009765625 l 2
 185 16.0009765625 265 16.0009765625 265 69.0009765625 c 2
 265 296.908203125 l 1
 330 296.000976562 l 2
 362 296.000976562 362 344.000976562 330 344.000976562 c 2
 265 342.7265625 l 1
 265 595.379882812 l 2
 266.831054688 605.759765625 264.060546875 615.282226562 258.565429688 622.868164062 c 0
 254.552734375 628.890625 248.955078125 633.301757812 242.62109375 636.1015625 c 0
 231.333007812 641.571289062 217.694335938 642.215820312 206.095703125 635.5078125 c 0
 198.053710938 631.611328125 191.3359375 625.029296875 187.765625 615.762695312 c 0
 163.8515625 590.056640625 63.55859375 564.981445312 1 601 c 0
 -23 615 -44 579 -20 565 c 0
EndSplineSet
EndChar

StartChar: G
Encoding: 71 71 32
Width: 600
GlyphClass: 2
Flags: MW
HStem: -40 41 600 40
VStem: 110 156 410.922 189.078 416 80
LayerCount: 2
Fore
SplineSet
-20 565 m 0xe8
 30.6201171875 536.432617188 74.9599609375 528.966796875 109.999023438 534.1640625 c 1
 109.999023438 0.001953125 l 2
 109.999023438 -21.998046875 127.999023438 -39.998046875 149.999023438 -39.998046875 c 0
 335.153320312 -39.998046875 455.26171875 12.896484375 487.359375 371.293945312 c 1
 547.370117188 415.727539062 599.999023438 487.241210938 599.999023438 616.000976562 c 1xf0
 588.999023438 659.000976562 524.999023438 643.000976562 535.999023438 600.000976562 c 1
 535.999023438 515.50390625 523.928710938 439.62890625 490.180664062 406.799804688 c 1
 494.161132812 463.79296875 496.126953125 527.905273438 496 600 c 0
 496 622 478 640 456 640 c 0
 312.982421875 640 210.998046875 622.639648438 190 535.348632812 c 1
 190 593.9609375 l 2
 191.500976562 601.96484375 190.239257812 609.541992188 187.077148438 616.161132812 c 0
 182.225585938 628.33984375 171.890625 635.802734375 160.319335938 638.549804688 c 0
 149.500976562 641.770507812 137.504882812 640.717773438 127.424804688 633.48046875 c 0
 121.266601562 629.633789062 116.169921875 624.016601562 113.111328125 616.62890625 c 0
 96.83203125 593.314453125 63.0654296875 566.206054688 1 601 c 0
 -23 615 -44 579 -20 565 c 0xe8
410.920898438 401.909179688 m 1
 317.001953125 407.9765625 265.999023438 430.637695312 265.999023438 499.001953125 c 0
 265.999023438 582.001953125 340.999023438 600.001953125 415.999023438 600.001953125 c 1xe8
 416.16796875 526.359375 414.5390625 460.504882812 410.920898438 401.909179688 c 1
407.873046875 359.821289062 m 1
 386.313476562 102.572265625 320.247070312 1.0009765625 189.998046875 1.0009765625 c 1
 189.998046875 463.09375 l 1
 208.59375 386.66015625 290.674804688 364.096679688 407.873046875 359.821289062 c 1
EndSplineSet
EndChar

StartChar: H
Encoding: 72 72 33
Width: 500
GlyphClass: 2
Flags: MW
HStem: 279 40
VStem: 110 80<579.636 587.002 502.739 600.003 579.636 579.636> 409.996 80.0038
LayerCount: 2
Fore
SplineSet
455.127929688 -39.4580078125 m 0
 473.280273438 -37.3818359375 489.999023438 -24.2265625 489.999023438 0.0029296875 c 0
 489.999023438 152.697265625 445.625 241.342773438 371.232421875 284.8984375 c 1
 445.625 303.469726562 489.999023438 370.314453125 489.999023438 600.002929688 c 0
 489.999023438 623.5859375 474.16015625 636.67578125 456.578125 639.271484375 c 0
 454.5546875 639.747070312 452.362304688 640.002929688 450 640.002929688 c 0
 377 640.002929688 352 599.002929688 253 616.002929688 c 0
 216 624.002929688 204 627.002929688 160 639.002929688 c 0
 135 645.002929688 110 626.002929688 110 600.002929688 c 2
 110 579.635742188 l 1
 73.3056640625 582.169921875 32.9111328125 571.255859375 1 601.002929688 c 0
 -19 620.002929688 -47 589.002929688 -27 571.002929688 c 0
 23.5517578125 523.424804688 79.015625 580.97265625 111.150390625 487.526367188 c 0
 112.733398438 480.6953125 115.865234375 475.059570312 120.00390625 470.619140625 c 0
 130.83984375 457.977539062 147.633789062 455.299804688 162.108398438 459.916992188 c 0
 170.538085938 462.302734375 178.17578125 467.252929688 183.318359375 474.766601562 c 0
 188.793945312 482.166015625 191.640625 491.690429688 190 502.739257812 c 2
 190 587.001953125 l 1
 194 586.001953125 207 584.001953125 237 578.001953125 c 1
 238 578.001953125 l 1
 327.350585938 561.90234375 360.328125 579.497070312 409.955078125 586.97265625 c 1
 408.327148438 351.797851562 361.517578125 319.000976562 225 319.000976562 c 0
 211.5 319.000976562 204.75 309.000976562 204.75 299.000976562 c 0
 204.75 289.000976562 211.5 279.000976562 225 279.000976562 c 0
 363.274414062 279.000976562 409.517578125 165.198242188 409.99609375 2.564453125 c 1
 274.060546875 12.798828125 144.498046875 68.7939453125 78 36 c 0
 30 13 65 -59 112 -36 c 0
 179 -4 308 -40 450 -40 c 0
 451.833984375 -40 453.54296875 -39.810546875 455.127929688 -39.4580078125 c 0
EndSplineSet
EndChar

StartChar: I
Encoding: 73 73 34
Width: 200
GlyphClass: 2
Flags: MW
VStem: 95 70<-27.999 -4.99902> 110.337 79.6628
LayerCount: 2
Fore
SplineSet
-24 568 m 0x40
 18.0107421875 535.640625 68.400390625 526.486328125 110.336914062 534.133789062 c 1x40
 111.9765625 356.999023438 118.131835938 179.166015625 95 -4.9990234375 c 1
 95 -50.9990234375 165 -50.9990234375 165 -4.9990234375 c 1x80
 189.705078125 194.620117188 189.99609375 392.286132812 190 592.82421875 c 0
 191.491210938 600.442382812 190.522460938 607.708984375 187.80859375 614.16796875 c 0
 183.3203125 627.5546875 172.469726562 635.6875 160.25 638.56640625 c 0
 147.322265625 642.540039062 132.690429688 640.418945312 121.51171875 628.90625 c 0
 118.859375 626.3828125 116.5546875 623.418945312 114.71875 620.013671875 c 0
 97.466796875 594.422851562 48.7587890625 564.9375 1 601 c 0
 -21 618 -46 585 -24 568 c 0x40
EndSplineSet
EndChar

StartChar: J
Encoding: 74 74 35
Width: 500
GlyphClass: 2
Flags: MW
HStem: -40 40 -38 76
LayerCount: 2
Fore
SplineSet
-20 565 m 0x80
 47.712890625 527.081054688 197.750976562 382.3828125 407.302734375 516.521484375 c 1
 395.918945312 329.34765625 349.174804688 92.5224609375 280 0.0009765625 c 1x80
 225 0.0009765625 154 66.0009765625 63 38.0009765625 c 0
 12 23.0009765625 36 -53.9990234375 87 -37.9990234375 c 0x40
 168 -13.9990234375 229 -39.9990234375 300 -39.9990234375 c 0
 313 -39.9990234375 324 -33.9990234375 332 -23.9990234375 c 0
 408.033203125 77.7080078125 487.966796875 383.201171875 489.961914062 592.08203125 c 0
 491.225585938 598.497070312 490.6796875 604.934570312 488.7421875 610.9296875 c 0
 485.68359375 623.477539062 477.359375 631.927734375 467.208007812 636.28125 c 0
 455.572265625 642.318359375 441.158203125 642.834960938 427.7109375 633.658203125 c 0
 424.762695312 631.8515625 422.051757812 629.643554688 419.68359375 627.034179688 c 0
 219.315429688 449.2578125 66.638671875 563.208007812 1 601 c 0
 -23 615 -44 579 -20 565 c 0x80
EndSplineSet
EndChar

StartChar: K
Encoding: 75 75 36
Width: 500
GlyphClass: 2
Flags: MW
HStem: -40 42 589 20G 598 42 608.288 21G
VStem: 111 78 410 80
LayerCount: 2
Fore
SplineSet
-20 565 m 0x9c
 31.0703125 536.2421875 75.2548828125 528.625976562 109.998046875 533.7421875 c 1
 109.998046875 498.999023438 l 2
 109.998046875 464.999023438 157.998046875 446.999023438 180.998046875 472.999023438 c 0
 222.998046875 522.999023438 225.998046875 597.999023438 299.998046875 597.999023438 c 0
 373.998046875 597.999023438 409.998046875 445.999023438 409.998046875 298.999023438 c 0
 409.998046875 151.999023438 373.998046875 1.9990234375 299.998046875 1.9990234375 c 2
 298.998046875 1.9990234375 l 2
 231.998046875 1.9990234375 177.998046875 49.9990234375 188.998046875 88.9990234375 c 0
 201.998046875 139.999023438 124.998046875 160.999023438 110.998046875 108.999023438 c 0
 93.998046875 43.9990234375 181.998046875 -40.0009765625 299.998046875 -40.0009765625 c 0
 383.998046875 -40.0009765625 489.998046875 45.9990234375 489.998046875 298.999023438 c 0
 489.998046875 551.999023438 383.998046875 639.999023438 299.998046875 639.999023438 c 2
 298.998046875 639.999023438 l 2xac
 228.29296875 639.999023438 195.895507812 614.240234375 189.997070312 608.885742188 c 1
 189.997070312 607.987304688 l 1
 189.950195312 608.243164062 189.901367188 608.498046875 189.849609375 608.751953125 c 1
 189.650390625 608.568359375 189.486328125 608.413085938 189.357421875 608.288085938 c 1
 189.484375 608.424804688 189.64453125 608.600585938 189.836914062 608.817382812 c 0
 188.772460938 613.96484375 186.578125 618.708007812 183.564453125 622.868164062 c 0
 179.551757812 628.890625 173.954101562 633.301757812 167.620117188 636.1015625 c 0
 156.33203125 641.571289062 142.693359375 642.215820312 131.094726562 635.5078125 c 0
 122.655273438 631.41796875 115.673828125 624.37109375 112.258789062 614.3671875 c 0
 96.2412109375 592.197265625 61.7548828125 566.940429688 1 601 c 0
 -23 615 -44 579 -20 565 c 0x9c
189.998046875 608.884765625 m 2
 189.947265625 608.837890625 189.8984375 608.794921875 189.8515625 608.751953125 c 1
 189.836914062 608.81640625 l 2
 189.888671875 608.874023438 189.942382812 608.934570312 189.998046875 608.999023438 c 1xcc
 189.998046875 608.884765625 l 2
EndSplineSet
EndChar

StartChar: L
Encoding: 76 76 37
Width: 380
GlyphClass: 2
Flags: MW
HStem: 160 80<-26.5 31.5894>
LayerCount: 2
Fore
SplineSet
290 61.37109375 m 1
 211.918945312 141.254882812 64.9990234375 240 0 240 c 0
 -53 240 -53 160 0 160 c 0
 63.1787109375 160 228.678710938 68.3974609375 294.484375 -19.5703125 c 1
 311.346679688 -51.904296875 370 -45.380859375 370 0 c 2
 370 600 l 2
 370 653 290 653 290 600 c 2
 290 61.37109375 l 1
EndSplineSet
EndChar

StartChar: M
Encoding: 77 77 38
Width: 470
GlyphClass: 2
Flags: MW
HStem: -40 41<115 200.5> 600 40<234 267>
VStem: 35 80<1 91 1 92.3403> 334 80<472.5 536>
LayerCount: 2
Fore
SplineSet
-20 565 m 0
 21.015625 541.963867188 69.607421875 555.546875 117.616210938 571.87109375 c 1
 -11.2236328125 434.07421875 35 184.680664062 35 0 c 0
 35 -22 53 -40 75 -40 c 0
 326 -40 404 -34 487 186 c 0
 506 236 432 264 413 214 c 0
 344 34 299 1 115 1 c 1
 115 181 3 496 234 600 c 1
 300 600 334 573 334 499 c 0
 334 446 414 446 414 499 c 0
 414 627 330 640 225 640 c 0
 158 640 67 563 1 601 c 0
 -23 615 -44 579 -20 565 c 0
EndSplineSet
EndChar

StartChar: N
Encoding: 78 78 39
Width: 500
GlyphClass: 2
Flags: MW
VStem: 47 80<253 335.015>
LayerCount: 2
Fore
SplineSet
109.469726562 610.719726562 m 0
 92.3974609375 589.6171875 58.4384765625 568.799804688 1 601 c 0
 -23 615 -44 579 -20 565 c 0
 17.12109375 544.096679688 50.60546875 534.364257812 79.4697265625 532.572265625 c 1
 59.009765625 460.853515625 47 371.030273438 47 299 c 0
 47 193 73 51 116 -21 c 0
 132 -48 178 -43 188 -12 c 0
 259 207 271 491 325 553 c 1
 363 384 412 193 503 -16 c 1
 525 -52 578 -19 557 16 c 1
 470 214 431 404 386 609 c 0
 379 639 337 650 317 626 c 0
 228 523 215 229 159 56 c 1
 144 82 127 207 127 299 c 0
 127 375.971679688 129.799804688 484.443359375 150.041015625 547.109375 c 1
 165.059570312 555.590820312 176.543945312 567.096679688 184 580.000976562 c 0
 210.78125 623.998046875 148.825195312 662.505859375 119.754882812 625.52734375 c 0
 118.474609375 624.478515625 117.220703125 623.305664062 116 622.000976562 c 0
 113.78125 618.4609375 111.603515625 614.694335938 109.469726562 610.719726562 c 0
EndSplineSet
EndChar

StartChar: O
Encoding: 79 79 40
Width: 470
GlyphClass: 2
Flags: MW
HStem: 598 42<263.001 299.001 299.001 300.001 257.001 337.501>
VStem: 110.462 79.5377 411 79
LayerCount: 2
Fore
SplineSet
190 100 m 2
 190.000976562 300 l 2
 190.000976562 447 226.000976562 598 300.000976562 598 c 0
 375.000976562 598 410.000976562 447 410.000976562 300 c 2
 411.000976562 -9 l 1
 338.000976562 -25 220.000976562 78 133.000976562 36 c 0
 85.0009765625 13 119.000976562 -59 167.000976562 -36 c 0
 250.000976562 4 350.000976562 -63 459.000976562 -39 c 0
 477.000976562 -35 490.000976562 -19 490.000976562 0 c 2
 490.000976562 300 l 2
 490.000976562 553 385.000976562 640 300.000976562 640 c 2
 299.000976562 640 l 2
 215.000976562 640 110.000976562 553 110.000976562 300 c 2
 110.462890625 207.073242188 l 1
 66.3681640625 240.487304688 8.369140625 247.139648438 -25 233 c 0
 -75 212 -44 139 5 159 c 0
 29.98828125 169.6015625 85.3662109375 173.895507812 110.782226562 142.791992188 c 1
 111 99 l 2
 112 46 191 47 190 100 c 2
EndSplineSet
EndChar

StartChar: P
Encoding: 80 80 41
Width: 449
GlyphClass: 2
Flags: MW
HStem: -40 40 360 41.0024
VStem: 27 80<299.001 307.614 299.001 320.403> 216 70
LayerCount: 2
Fore
SplineSet
178 360 m 0
 231 361 285.997070312 451.001953125 285.997070312 499.001953125 c 2
 285.997070312 502.001953125 l 1
 279.375976562 585.591796875 240.5625 609.590820312 191.09765625 617.081054688 c 0
 187.672851562 620.08984375 182.97265625 622.001953125 176.998046875 622.001953125 c 0
 170.069335938 622.001953125 163.439453125 621.368164062 157.096679688 620.147460938 c 0
 152.8046875 620.303710938 149.142578125 619.24609375 146.166015625 617.381835938 c 0
 96.849609375 601.809570312 66.42578125 548.5625 48.673828125 483.616210938 c 1
 22.068359375 529.431640625 6.2529296875 582.716796875 -19.0009765625 611.000976562 c 0
 -37.0009765625 631.000976562 -68.0009765625 604.000976562 -50.0009765625 583.000976562 c 0
 -19.4091796875 549.131835938 1.3349609375 485.71875 37.98828125 435.147460938 c 1
 30.0703125 389.66015625 27 341.8046875 27 299.000976562 c 0
 26 178.000976562 111 -39.9990234375 246 -39.9990234375 c 2
 400 -40.9990234375 l 2
 422 -40.9990234375 440 -22.9990234375 440 -0.9990234375 c 2
 439 600.000976562 l 2
 439 653.000976562 359 653.000976562 359 600.000976562 c 2
 359 0.0009765625 l 1
 246 0.0009765625 l 2
 127 0.0009765625 106 222.000976562 107 299.000976562 c 0
 107 316.2265625 104.537109375 344.53515625 102.96484375 376.713867188 c 1
 123.376953125 366.348632812 147.342773438 360.140625 176.025390625 360.002929688 c 0
 176.66796875 359.9765625 177.326171875 360 178 360 c 0
164.688476562 578.895507812 m 1
 206.919921875 571.504882812 213.198242188 533.384765625 215.997070312 497.00390625 c 0
 215.997070312 481.015625 214.999023438 402.123046875 176.0859375 401.005859375 c 0
 145.577148438 401.16796875 121.416015625 409.469726562 101.68359375 422.83203125 c 1
 101.587890625 494.704101562 112.224609375 569.021484375 164.688476562 578.895507812 c 1
EndSplineSet
EndChar

StartChar: Q
Encoding: 81 81 42
Width: 500
GlyphClass: 2
Flags: MW
HStem: -39 78 599 41<224.999 323.126 220 349.121>
VStem: 35 80 410 80
LayerCount: 2
Fore
SplineSet
365 39 m 0
 248 10 225.999023438 97 114.999023438 24 c 1
 114.999023438 410 149.999023438 599 299.999023438 599 c 0
 398.243164062 599 409.056640625 509.454101562 409.999023438 437.524414062 c 2
 409.999023438 399 l 2
 409.999023438 377 429.999023438 366 449.999023438 366 c 0
 469.999023438 366 489.999023438 377 489.999023438 399 c 2
 490.999023438 599 l 2
 491.955078125 650.640625 417.921875 653.811523438 410.575195312 606.764648438 c 1
 382.604492188 627.733398438 346.251953125 640 300 640 c 0
 140 640 35 588 35 0 c 0
 35 -30 72 -50 97 -33 c 0
 240 61 278 -64 383 -39 c 0
 435 -26 416 51 365 39 c 0
EndSplineSet
EndChar

StartChar: R
Encoding: 82 82 43
Width: 470
GlyphClass: 2
Flags: MW
VStem: 110 80
LayerCount: 2
Fore
SplineSet
465.877929688 634.76953125 m 0
 461.9140625 637.987304688 456.62109375 640.000976562 450 640.000976562 c 0
 377 640.000976562 352 599.000976562 253 616.000976562 c 0
 216 624.000976562 204 627.000976562 160 639.000976562 c 0
 135 645.000976562 110 626.000976562 110 600.000976562 c 2
 110 580.6953125 l 1
 73.3046875 582.958007812 32.91015625 571.794921875 0.9990234375 601.000976562 c 0
 -19.0009765625 619.000976562 -47.0009765625 589.000976562 -27.0009765625 570.000976562 c 0
 23.306640625 524.625 78.4794921875 581.418945312 110.682617188 490.82421875 c 1
 117.618164062 451.010742188 175.20703125 448.850585938 187.638671875 484.34375 c 0
 190.137695312 490.294921875 191.124023438 497.157226562 189.998046875 504.73828125 c 2
 189.998046875 587.000976562 l 1
 193.998046875 586.000976562 206.998046875 584.000976562 236.998046875 578.000976562 c 1
 237.998046875 578.000976562 l 1
 320.786132812 563.083984375 355.178710938 577.09375 399.259765625 585.178710938 c 1
 261.40625 396.1640625 183.130859375 242.736328125 110.999023438 -101.999023438 c 0
 99.9990234375 -153.999023438 177.999023438 -169.999023438 188.999023438 -117.999023438 c 0
 261.999023438 234.000976562 334.999023438 380.000976562 481.999023438 576.000976562 c 0
 502.541015625 599.110351562 487.64453125 627.165039062 465.877929688 634.76953125 c 0
EndSplineSet
EndChar

StartChar: S
Encoding: 83 83 44
Width: 500
GlyphClass: 2
Flags: MW
HStem: 670 40
VStem: 196 68 410 80<245.904 600 245.904 245.904>
LayerCount: 2
Fore
SplineSet
72 278 m 1
 156 236 183 156 196 91 c 0
 206 46 275 61 264 107 c 0
 248 187 188 264 78 320 c 1
 50 324 44 282 72 278 c 1
-57 670 m 0
 186 695 343 258 411 -10 c 0
 411.13671875 -10.546875 411.280273438 -11.0859375 411.430664062 -11.6162109375 c 0
 412.163085938 -14.408203125 413.159179688 -16.9931640625 414.379882812 -19.3701171875 c 0
 425.703125 -42.482421875 453.076171875 -45.2431640625 471.705078125 -34.009765625 c 0
 473.947265625 -32.689453125 476.059570312 -31.1416015625 477.99609375 -29.3662109375 c 0
 486.772460938 -21.494140625 492.095703125 -9.724609375 490 4.92578125 c 2
 490 600 l 2
 490 653 410 653 410 600 c 2
 410 245.904296875 l 1
 302.919921875 502.016601562 132.118164062 729.924804688 -61 710 c 0
 -88 708 -84 667 -57 670 c 0
EndSplineSet
EndChar

StartChar: T
Encoding: 84 84 45
Width: 450
GlyphClass: 2
Flags: MW
HStem: 156 78 165 70
VStem: 180 100<600.002 633.002 600.002 633.502> 185 80 188.305 81.9138
LayerCount: 2
Fore
SplineSet
270.21875 109.155273438 m 1x88
 277.01953125 278.057617188 279.180664062 450.1015625 280 600.001953125 c 0
 280 666.001953125 180 667.001953125 180 600.001953125 c 0xa0
 179.159179688 447.7265625 191.057617188 272.094726562 188.305664062 99.3056640625 c 1x88
 136.880859375 174.580078125 61.697265625 235.000976562 0 235.000976562 c 0
 -47 235.000976562 -47 165.000976562 0 165.000976562 c 0
 60.0068359375 165.000976562 143.16015625 101.349609375 185.575195312 13.12890625 c 0
 185.392578125 9.416015625 185.201171875 5.7060546875 185 2 c 0
 182 -51 262 -55 265 -2 c 0x50
 265.330078125 4.099609375 265.653320312 10.2109375 265.969726562 16.3330078125 c 0
 312.139648438 100.975585938 399.599609375 143.421875 457.999023438 156 c 0
 509.999023438 167 493.999023438 245 441.999023438 234 c 0
 383.604492188 222.321289062 318.129882812 173.356445312 270.21875 109.155273438 c 1x88
EndSplineSet
EndChar

StartChar: U
Encoding: 85 85 46
Width: 500
GlyphClass: 2
Flags: MW
HStem: -40 41
VStem: 110 80
LayerCount: 2
Fore
SplineSet
-20 565 m 0
 31.0703125 536.2421875 75.255859375 528.626953125 109.999023438 533.743164062 c 1
 109.999023438 200 l 2
 109.999023438 86 179.999023438 -40 449.999023438 -40 c 0
 471.999023438 -40 489.999023438 -22 489.999023438 0 c 2
 489.999023438 525 l 2
 489.999023438 559.499023438 456.102539062 571.541992188 432.4375 561.127929688 c 0
 430.965820312 560.606445312 429.482421875 559.903320312 427.999023438 559 c 0
 323.999023438 492 265.999023438 460 226.999023438 365 c 0
 206.999023438 316 280.999023438 285 300.999023438 335 c 0
 328.620117188 401.123046875 348.53515625 446.229492188 409.999023438 494.946289062 c 1
 409.999023438 1.0009765625 l 1
 225.999023438 1.0009765625 189.999023438 112.000976562 189.999023438 200.000976562 c 2
 190.999023438 599.000976562 l 2
 191.439453125 622.76171875 176.00390625 636.260742188 158.493164062 639.328125 c 0
 149.215820312 641.465820312 139.234375 640.440429688 130.4765625 635.142578125 c 0
 122.645507812 631.034179688 116.1484375 624.31640625 112.688476562 614.96875 c 0
 96.8623046875 592.659179688 62.3037109375 566.6328125 1 601 c 0
 -23 615 -44 579 -20 565 c 0
EndSplineSet
EndChar

StartChar: V
Encoding: 86 86 47
Width: 500
GlyphClass: 2
Flags: MW
HStem: 571 68
VStem: 258 82.4151 258 91
LayerCount: 2
Fore
SplineSet
-20 565 m 0xc0
 69.4912109375 514.606445312 137.844726562 529.137695312 171.288085938 563.330078125 c 1
 210.959960938 511.143554688 235.37109375 351.370117188 260.30859375 290.28515625 c 1
 265.857421875 167.626953125 261.928710938 128.69921875 258 1.0009765625 c 0
 256 -58.9990234375 347 -61.9990234375 349 -0.9990234375 c 0xa0
 352.908203125 127.967773438 346.31640625 169.114257812 340.416015625 292.178710938 c 1
 370.095703125 366.45703125 401.84375 557.6640625 459.000976562 571.000976562 c 0
 504.000976562 583.000976562 487.000976562 651.000976562 441.000976562 639.000976562 c 0
 373.000976562 624.000976562 308.000976562 400.000976562 300.000976562 382.000976562 c 1
 289.080078125 403.001953125 238.641601562 566.547851562 184.25390625 621.888671875 c 1
 169.719726562 643.30078125 133.766601562 650.26953125 116 620 c 0
 102 597 67 564 1 601 c 0
 -23 615 -44 579 -20 565 c 0xc0
EndSplineSet
EndChar

StartChar: W
Encoding: 87 87 48
Width: 500
GlyphClass: 2
Flags: MW
HStem: -41 42 398 41 560 41 560 70 598 42<217.077 239 217.077 239>
VStem: 35 80 185 70<499 499> 410 80
LayerCount: 2
Fore
SplineSet
-20 565 m 0xe7
 15.7470703125 544.922851562 57.248046875 552.661132812 99.103515625 565.788085938 c 1
 61.71484375 512.251953125 34.9990234375 426.616210938 34.9990234375 298.999023438 c 0
 34.9990234375 45.9990234375 139.999023438 -40.0009765625 244.999023438 -40.0009765625 c 2
 277.999023438 -41.0009765625 l 1
 278.999023438 -41.0009765625 l 2
 383.999023438 -41.0009765625 489.999023438 45.9990234375 489.999023438 298.999023438 c 0
 489.999023438 429.53515625 459.119140625 505.764648438 419.060546875 548.977539062 c 1
 426.587890625 555.91796875 436.330078125 559.999023438 450 559.999023438 c 0
 497 559.999023438 497 629.999023438 450 629.999023438 c 0xd7
 415.11328125 629.999023438 402.301757812 606.254882812 389.672851562 574.186523438 c 1
 359.288085938 594.536132812 326.874023438 600.999023438 300 600.999023438 c 0xe7
 224 600.999023438 187 571.999023438 185 499.999023438 c 2
 185 497.999023438 l 2
 187 428.999023438 224 397.999023438 300 397.999023438 c 0
 307 397.999023438 313 398.999023438 319 402.999023438 c 0
 354.044921875 421.639648438 371.4375 448.203125 383.096679688 474.190429688 c 1
 400.100585938 428.287109375 410 367.194335938 410 299 c 0
 410 152 374 1 278 1 c 2
 277 1 l 1
 246 0 l 2
 150 0 115 152 115 299 c 0
 115 446 150 598 225 598 c 0
 253 598 253 640 225 640 c 0xcf
 209.154296875 640 192.61328125 636.94140625 176.1875 630.326171875 c 0
 117.9375 610.9453125 52.00390625 571.633789062 1 601 c 0
 -23 615 -44 579 -20 565 c 0xe7
364.209960938 514.106445312 m 1
 349.525390625 486.624023438 327.891601562 459.403320312 290 439 c 1
 255 439 256 473 255 499 c 0
 256 527 254 560 300 560 c 0xe7
 324.58984375 560 346.522460938 543.170898438 364.209960938 514.106445312 c 1
EndSplineSet
EndChar

StartChar: X
Encoding: 88 88 49
Width: 500
GlyphClass: 2
Flags: MW
HStem: -38 76
LayerCount: 2
Fore
SplineSet
120 68 m 0
 210 235 217 398 249 515 c 1
 293 396 341 237 401 -3 c 1
 343 -6 230 67 138 38 c 0
 87 22 111 -54 162 -38 c 0
 248 -11 349 -46 452 -40 c 0
 477 -39 495 -14 489 10 c 0
 425 262 354 416 282 614 c 0
 269 647 215 645 205 611 c 0
 153 422 137 267 50 106 c 0
 25 59 95 21 120 68 c 0
EndSplineSet
EndChar

StartChar: Y
Encoding: 89 89 50
Width: 500
GlyphClass: 2
Flags: MW
HStem: 424 40 560 70 598 42
VStem: 110 92
LayerCount: 2
Fore
SplineSet
384 640 m 2xb0
 332.99609375 640.001953125 l 1
 331.99609375 640.001953125 l 2xb0
 233.99609375 638.001953125 232.99609375 424.001953125 332.99609375 424.001953125 c 0
 338.938476562 424.001953125 344.837890625 425.130859375 350.689453125 427.18359375 c 1
 311.267578125 300.204101562 224.598632812 145.231445312 201.998046875 110.000976562 c 1
 203.970703125 178.059570312 227.34765625 433.889648438 190.55859375 602.075195312 c 0
 190.474609375 610.732421875 187.219726562 618.561523438 182.029296875 624.8515625 c 0
 175.389648438 634.05859375 165.59765625 638.875976562 155.350585938 639.92578125 c 0
 146.935546875 641.190429688 138.130859375 639.827148438 130.313476562 635.04296875 c 0
 121.752929688 630.536132812 114.772460938 623.171875 111.59765625 613.46484375 c 0
 95.3017578125 591.5234375 60.931640625 567.40234375 1 601 c 0
 -23 615 -44 579 -20 565 c 0
 36.3994140625 533.241210938 84.4033203125 527.267578125 120.564453125 535.750976562 c 1
 140.844726562 375.125 112.676757812 155.403320312 109.999023438 1 c 0
 108.999023438 -36 163.999023438 -52 183.999023438 -21 c 0
 265.930664062 108.171875 392.5390625 339.227539062 427.493164062 493.610351562 c 1
 455.107421875 525.828125 480.833984375 557.586914062 503.999023438 560 c 0
 550.999023438 565 542.999023438 635 496.999023438 630 c 0xd0
 475.782226562 627.75 454.978515625 609.791015625 435.319335938 586.456054688 c 1
 433.48828125 599.860351562 429.798828125 611.485351562 424 621 c 0
 415.471679688 634.583007812 403.151367188 639.684570312 391.16796875 638.952148438 c 0
 389.02734375 639.626953125 386.637695312 640 384 640 c 2xb0
366.649414062 491.666992188 m 1
 353.880859375 475.147460938 342.52734375 464.002929688 332.99609375 464.002929688 c 2
 331.99609375 464.002929688 l 2
 313.99609375 464.002929688 312.99609375 598.002929688 331.99609375 598.002929688 c 2
 353.231445312 598.002929688 l 1
 353.688476562 591.880859375 355.795898438 585.453125 359.99609375 579.002929688 c 0
 371.91015625 559.073242188 372.84375 528.256835938 366.649414062 491.666992188 c 1
EndSplineSet
EndChar

StartChar: Z
Encoding: 90 90 51
Width: 450
GlyphClass: 2
Flags: MW
HStem: -40 42 161.768 48.9328 182 36
VStem: 334 80.1866
LayerCount: 2
Fore
SplineSet
162 182 m 1xb0
 209.924804688 196.873046875 272.71875 175.028320312 334 161.766601562 c 1
 334 117.999023438 l 2
 334 27.9990234375 298 1.9990234375 150 1.9990234375 c 2
 149 1.9990234375 l 2
 77 1.9990234375 102 60.9990234375 111 82.9990234375 c 0
 133 130.999023438 61 163.999023438 39 114.999023438 c 0
 10 52.9990234375 29 -40.0009765625 150 -40.0009765625 c 0
 336.364257812 -40.0009765625 412.668945312 -28.208984375 413.982421875 153.184570312 c 1
 434.786132812 154.478515625 454.395507812 159.66796875 471.999023438 170.999023438 c 0
 509.999023438 199.999023438 465.999023438 257.999023438 427.999023438 228.999023438 c 0
 423.528320312 226.095703125 418.919921875 223.590820312 414.185546875 221.44140625 c 1
 415 497.998046875 l 2
 415.427734375 521.106445312 400.838867188 534.508789062 383.928710938 538.048828125 c 0
 372.327148438 541.470703125 359.190429688 539.67578125 347.805664062 529.713867188 c 0
 346.0390625 528.252929688 344.39453125 526.619140625 342.901367188 524.8125 c 0
 277.610351562 456.092773438 67.62109375 552.275390625 0.9990234375 600.999023438 c 0
 -22.0009765625 616.999023438 -46.0009765625 583.999023438 -23.0009765625 567.999023438 c 0
 42.8369140625 519.612304688 222.561523438 431.5859375 334 441.671875 c 1
 334 210.700195312 l 1xd0
 270.598632812 214.908203125 199.482421875 236.768554688 138 218 c 1
 114 203 137 166 162 182 c 1xb0
EndSplineSet
EndChar

StartChar: ltr97
Encoding: 97 97 52
Width: 500
GlyphClass: 2
Flags: MW
HStem: 279 40<110 269.5 190 269.5 139 274.5> 359 40
VStem: 110 80<-26.5 279 0 279> 410 80<-26.5 86.5>
LayerCount: 2
Fore
SplineSet
190 0 m 2
 190 279 l 1
 359 279 410 173 410 0 c 0
 410 -53 490 -53 490 0 c 0
 490 227 389 319 150 319 c 0
 128 319 110 301 110 279 c 2
 110 0 l 2
 110 -53 190 -53 190 0 c 2
-20 565 m 0
 31.0703125 536.2421875 75.255859375 528.627929688 109.999023438 533.744140625 c 1
 109.999023438 399.000976562 l 2
 109.999023438 377.000976562 127.999023438 359.000976562 149.999023438 359.000976562 c 0
 418.999023438 359.000976562 489.999023438 484.000976562 489.999023438 600.000976562 c 0
 489.999023438 653.000976562 409.999023438 653.000976562 409.999023438 600.000976562 c 0
 409.999023438 512.000976562 373.999023438 399.000976562 189.999023438 399.000976562 c 1
 189.999023438 595.379882812 l 2
 191.830078125 605.759765625 189.059570312 615.282226562 183.564453125 622.868164062 c 0
 179.551757812 628.890625 173.954101562 633.301757812 167.620117188 636.1015625 c 0
 156.33203125 641.571289062 142.693359375 642.215820312 131.094726562 635.5078125 c 0
 122.655273438 631.41796875 115.673828125 624.37109375 112.258789062 614.3671875 c 0
 96.2412109375 592.197265625 61.7548828125 566.940429688 1 601 c 0
 -23 615 -44 579 -20 565 c 0
EndSplineSet
EndChar

StartChar: ltr98
Encoding: 98 98 53
Width: 470
GlyphClass: 2
Flags: MW
HStem: -40 41<187.501 224.001 224.001 225.001 187.501 270.001> 279 40<240.001 306.751 240.001 306.751> 597 43<217.838 224.001 224.001 225.001 217.838 261.501>
VStem: 35 80 334 80 410 80
LayerCount: 2
Fore
SplineSet
-20 565 m 0xf8
 18.173828125 543.423828125 53.9375 545.778320312 88.076171875 555.919921875 c 1
 56.33984375 512.565429688 35.0009765625 456.743164062 35.0009765625 399 c 0
 35.0009765625 320.899414062 72.2373046875 293.615234375 149.608398438 284.09375 c 1
 76.2998046875 244.515625 35.0009765625 175.474609375 35.0009765625 99 c 0
 35.0009765625 -26 120.000976562 -40 225.000976562 -40 c 0
 315.000976562 -40 490.000976562 81 490.000976562 200 c 0
 490.000976562 253 410.000976562 253 410.000976562 200 c 0xf4
 410.000976562 117 300.000976562 1 225.000976562 1 c 2
 224.000976562 1 l 2
 151.000976562 1 115.000976562 26 115.000976562 99 c 0
 115.000976562 182 165.000976562 279 300.000976562 279 c 0
 313.500976562 279 320.250976562 289 320.250976562 299 c 0
 320.250976562 309 313.500976562 319 300.000976562 319 c 0
 180.000976562 319 115.000976562 317 115.000976562 399 c 0
 115.000976562 472 151.000976562 597 225.000976562 597 c 0
 298.000976562 597 334.000976562 573 334.000976562 498 c 0
 334.000976562 445 414.000976562 445 414.000976562 498 c 0
 414.000976562 627 329.000976562 640 225.000976562 640 c 2
 224.000976562 640 l 2
 211.67578125 640 199.139648438 637.775390625 186.6875 633.610351562 c 0
 125.983398438 615.961914062 55.0947265625 569.854492188 1 601 c 0
 -23 615 -44 579 -20 565 c 0xf8
EndSplineSet
EndChar

StartChar: ltr99
Encoding: 99 99 54
Width: 490
GlyphClass: 2
Flags: MW
VStem: 110 80 273 80 435 70
LayerCount: 2
Fore
SplineSet
-19 565 m 0
 39.6435546875 534.111328125 80.25390625 543.502929688 110.001953125 567.787109375 c 1
 110.001953125 199.999023438 l 2
 110.001953125 146.999023438 190.001953125 146.999023438 190.001953125 199.999023438 c 2
 190.001953125 550.934570312 l 1
 250.901367188 582.407226562 278.001953125 577.591796875 278.001953125 535 c 2
 273.001953125 200 l 2
 273.001953125 147 353.001953125 147 353.001953125 200 c 2
 348.001953125 535 l 2
 348.001953125 539.635742188 347.881835938 544.057617188 347.645507812 548.272460938 c 0
 410.7265625 582.772460938 435.001953125 579.693359375 435.001953125 535 c 0
 435.001953125 281 421.001953125 21 430.001953125 -103 c 0
 434.001953125 -156 514.001953125 -150 510.001953125 -97 c 0
 501.001953125 25 505.001953125 283 505.001953125 535 c 0
 505.001953125 662.935546875 416.896484375 628.784179688 340.518554688 586.983398438 c 1
 318.66015625 646.47265625 252.497070312 624.415039062 190.000976562 592.63671875 c 1
 190.000976562 692.9609375 l 2
 191.501953125 700.96484375 190.240234375 708.54296875 187.078125 715.162109375 c 0
 182.2265625 727.340820312 171.891601562 734.803710938 160.3203125 737.55078125 c 0
 149.501953125 740.771484375 137.505859375 739.71875 127.42578125 732.481445312 c 0
 117.26953125 726.13671875 110 714.9765625 110 699 c 2
 110 696.489257812 l 1
 101.0859375 649.411132812 84.8232421875 556.670898438 1 601 c 0
 -24 614 -43 577 -19 565 c 0
EndSplineSet
EndChar

StartChar: ltr100
Encoding: 100 100 55
Width: 500
GlyphClass: 2
Flags: MW
HStem: -140 41<224 224> 251 44
VStem: 110 80 343 51
LayerCount: 2
Fore
SplineSet
284.268554688 254.701171875 m 1
 328.838867188 232.009765625 343 180.387695312 343 120 c 0
 343 21 274 -100 226 -99 c 2
 224 -99 l 2
 190 -100 164 -53 178 -12 c 1
 178 -11 l 1
 208.508789062 85.8154296875 244.313476562 173.530273438 284.268554688 254.701171875 c 1
308.602539062 302.397460938 m 1
 360.94140625 401.46484375 419.502929688 490.9609375 482 575.998046875 c 0
 507.5078125 610.274414062 471.381835938 647.727539062 439.97265625 639.734375 c 1
 374.475585938 636.256835938 347.328125 599.799804688 253 615.997070312 c 0
 216 623.997070312 204 626.997070312 160 638.997070312 c 0
 135 644.997070312 110 625.997070312 110 599.997070312 c 2
 110 580.129882812 l 1
 73.3056640625 582.661132812 32.9111328125 571.791015625 1 600.998046875 c 0
 -19 618.998046875 -47 588.998046875 -27 569.998046875 c 0
 23.560546875 524.39453125 79.0361328125 581.0078125 111.16796875 488.444335938 c 0
 112.756835938 481.6484375 115.880859375 476.0390625 120.002929688 471.616210938 c 0
 130.838867188 458.974609375 147.6328125 456.296875 162.107421875 460.9140625 c 0
 170.537109375 463.299804688 178.174804688 468.25 183.317382812 475.763671875 c 0
 188.79296875 483.163085938 191.639648438 492.6875 189.999023438 503.736328125 c 2
 189.999023438 586.999023438 l 1
 193.999023438 585.999023438 206.999023438 583.999023438 236.999023438 577.999023438 c 1
 237.999023438 577.999023438 l 1
 314.041992188 564.297851562 349.25390625 575.000976562 388.647460938 583.1015625 c 1
 330.64453125 500.213867188 278.333984375 412.622070312 231.715820312 317.047851562 c 1
 197.392578125 316.755859375 156.4921875 309.720703125 107.999023438 295 c 1
 78.9990234375 278 103.999023438 234 133.999023438 251 c 1
 161.989257812 259.547851562 186.467773438 264.471679688 207.826171875 266.256835938 c 1
 172.271484375 187.819335938 140.329101562 103.953125 111.999023438 13 c 0
 73.9990234375 -99 172.999023438 -142 224.999023438 -140 c 0
 282.999023438 -141 393.999023438 -15 393.999023438 100 c 0
 393.999023438 198.587890625 372.391601562 272.431640625 308.602539062 302.397460938 c 1
EndSplineSet
EndChar

StartChar: ltr101
Encoding: 101 101 56
Width: 570
GlyphClass: 2
Flags: MW
HStem: 560 80<356.893 556.5>
VStem: 397 70<-23.5 0> 400 79.9308
LayerCount: 2
Fore
SplineSet
400 574 m 2xa0
 397 0 l 2
 397 -47 467 -47 467 0 c 2xc0
 479.930664062 570.944335938 l 1
 530 560 l 1
 583 560 583 640 530 640 c 2
 356.892578125 640 l 2
 350.274414062 643.446289062 341.971679688 643.646484375 334 638 c 0
 267 614 224 132 190 97 c 1
 190 593.9609375 l 2
 191.500976562 601.96484375 190.239257812 609.541992188 187.077148438 616.161132812 c 0
 182.225585938 628.33984375 171.890625 635.802734375 160.319335938 638.549804688 c 0
 149.500976562 641.770507812 137.504882812 640.717773438 127.424804688 633.48046875 c 0
 121.266601562 629.633789062 116.169921875 624.016601562 113.111328125 616.62890625 c 0
 96.83203125 593.314453125 63.0654296875 566.206054688 1 601 c 0
 -23 615 -44 579 -20 565 c 0
 30.6201171875 536.432617188 74.9609375 528.96484375 110 534.162109375 c 1
 110 0 l 2
 110 -33 155 -52 178 -28 c 0
 269.795898438 63.7958984375 282.438476562 550.405273438 354.690429688 598.319335938 c 1
 402.120117188 587.952148438 l 1
 400.755859375 583.801757812 400 579.151367188 400 574 c 2xa0
EndSplineSet
EndChar

StartChar: ltr102
Encoding: 102 102 57
Width: 470
GlyphClass: 2
Flags: MW
HStem: -40 41 298.023 43.1336
VStem: 35 80<214.501 299.001 214.501 310.001> 410 80<158.501 226.501>
LayerCount: 2
Fore
SplineSet
-20 565 m 0
 37.1298828125 532.982421875 123.032226562 530.918945312 185.000976562 543.962890625 c 1
 185.000976562 341.157226562 l 1
 75 339.000976562 l 2
 53 339.000976562 35 321.000976562 35 299.000976562 c 0
 35 8.0009765625 55 -39.9990234375 240 -39.9990234375 c 0
 315 -39.9990234375 490 81.0009765625 490 200.000976562 c 0
 490 253.000976562 410 253.000976562 410 200.000976562 c 0
 410 117.000976562 300 1.0009765625 225 1.0009765625 c 0
 76 1.0009765625 115 130.000976562 115 299.000976562 c 1
 185 298.024414062 l 1
 185 69.0009765625 l 2
 185 16.0009765625 265 16.0009765625 265 69.0009765625 c 2
 265 296.908203125 l 1
 330 296.000976562 l 2
 362 296.000976562 362 344.000976562 330 344.000976562 c 2
 265 342.7265625 l 1
 265 595.379882812 l 2
 266.831054688 605.759765625 264.060546875 615.282226562 258.565429688 622.868164062 c 0
 254.552734375 628.890625 248.955078125 633.301757812 242.62109375 636.1015625 c 0
 231.333007812 641.571289062 217.694335938 642.215820312 206.095703125 635.5078125 c 0
 198.053710938 631.611328125 191.3359375 625.029296875 187.765625 615.762695312 c 0
 163.8515625 590.056640625 63.55859375 564.981445312 1 601 c 0
 -23 615 -44 579 -20 565 c 0
EndSplineSet
EndChar

StartChar: ltr103
Encoding: 103 103 58
Width: 600
GlyphClass: 2
Flags: MW
HStem: -40 41 600 40
VStem: 110 156 410.922 189.078 416 80
LayerCount: 2
Fore
SplineSet
-20 565 m 0xe8
 30.6201171875 536.432617188 74.9599609375 528.966796875 109.999023438 534.1640625 c 1
 109.999023438 0.001953125 l 2
 109.999023438 -21.998046875 127.999023438 -39.998046875 149.999023438 -39.998046875 c 0
 335.153320312 -39.998046875 455.26171875 12.896484375 487.359375 371.293945312 c 1
 547.370117188 415.727539062 599.999023438 487.241210938 599.999023438 616.000976562 c 1xf0
 588.999023438 659.000976562 524.999023438 643.000976562 535.999023438 600.000976562 c 1
 535.999023438 515.50390625 523.928710938 439.62890625 490.180664062 406.799804688 c 1
 494.161132812 463.79296875 496.126953125 527.905273438 496 600 c 0
 496 622 478 640 456 640 c 0
 312.982421875 640 210.998046875 622.639648438 190 535.348632812 c 1
 190 593.9609375 l 2
 191.500976562 601.96484375 190.239257812 609.541992188 187.077148438 616.161132812 c 0
 182.225585938 628.33984375 171.890625 635.802734375 160.319335938 638.549804688 c 0
 149.500976562 641.770507812 137.504882812 640.717773438 127.424804688 633.48046875 c 0
 121.266601562 629.633789062 116.169921875 624.016601562 113.111328125 616.62890625 c 0
 96.83203125 593.314453125 63.0654296875 566.206054688 1 601 c 0
 -23 615 -44 579 -20 565 c 0xe8
410.920898438 401.909179688 m 1
 317.001953125 407.9765625 265.999023438 430.637695312 265.999023438 499.001953125 c 0
 265.999023438 582.001953125 340.999023438 600.001953125 415.999023438 600.001953125 c 1xe8
 416.16796875 526.359375 414.5390625 460.504882812 410.920898438 401.909179688 c 1
407.873046875 359.821289062 m 1
 386.313476562 102.572265625 320.247070312 1.0009765625 189.998046875 1.0009765625 c 1
 189.998046875 463.09375 l 1
 208.59375 386.66015625 290.674804688 364.096679688 407.873046875 359.821289062 c 1
EndSplineSet
EndChar

StartChar: ltr104
Encoding: 104 104 59
Width: 500
GlyphClass: 2
Flags: MW
HStem: 279 40
VStem: 110 80<579.636 587.002 502.739 600.003 579.636 579.636> 409.996 80.0038
LayerCount: 2
Fore
SplineSet
455.127929688 -39.4580078125 m 0
 473.280273438 -37.3818359375 489.999023438 -24.2265625 489.999023438 0.0029296875 c 0
 489.999023438 152.697265625 445.625 241.342773438 371.232421875 284.8984375 c 1
 445.625 303.469726562 489.999023438 370.314453125 489.999023438 600.002929688 c 0
 489.999023438 623.5859375 474.16015625 636.67578125 456.578125 639.271484375 c 0
 454.5546875 639.747070312 452.362304688 640.002929688 450 640.002929688 c 0
 377 640.002929688 352 599.002929688 253 616.002929688 c 0
 216 624.002929688 204 627.002929688 160 639.002929688 c 0
 135 645.002929688 110 626.002929688 110 600.002929688 c 2
 110 579.635742188 l 1
 73.3056640625 582.169921875 32.9111328125 571.255859375 1 601.002929688 c 0
 -19 620.002929688 -47 589.002929688 -27 571.002929688 c 0
 23.5517578125 523.424804688 79.015625 580.97265625 111.150390625 487.526367188 c 0
 112.733398438 480.6953125 115.865234375 475.059570312 120.00390625 470.619140625 c 0
 130.83984375 457.977539062 147.633789062 455.299804688 162.108398438 459.916992188 c 0
 170.538085938 462.302734375 178.17578125 467.252929688 183.318359375 474.766601562 c 0
 188.793945312 482.166015625 191.640625 491.690429688 190 502.739257812 c 2
 190 587.001953125 l 1
 194 586.001953125 207 584.001953125 237 578.001953125 c 1
 238 578.001953125 l 1
 327.350585938 561.90234375 360.328125 579.497070312 409.955078125 586.97265625 c 1
 408.327148438 351.797851562 361.517578125 319.000976562 225 319.000976562 c 0
 211.5 319.000976562 204.75 309.000976562 204.75 299.000976562 c 0
 204.75 289.000976562 211.5 279.000976562 225 279.000976562 c 0
 363.274414062 279.000976562 409.517578125 165.198242188 409.99609375 2.564453125 c 1
 274.060546875 12.798828125 144.498046875 68.7939453125 78 36 c 0
 30 13 65 -59 112 -36 c 0
 179 -4 308 -40 450 -40 c 0
 451.833984375 -40 453.54296875 -39.810546875 455.127929688 -39.4580078125 c 0
EndSplineSet
EndChar

StartChar: ltr105
Encoding: 105 105 60
Width: 200
GlyphClass: 2
Flags: MW
VStem: 95 70<-27.999 -4.99902> 110.337 79.6628
LayerCount: 2
Fore
SplineSet
-24 568 m 0x40
 18.0107421875 535.640625 68.400390625 526.486328125 110.336914062 534.133789062 c 1x40
 111.9765625 356.999023438 118.131835938 179.166015625 95 -4.9990234375 c 1
 95 -50.9990234375 165 -50.9990234375 165 -4.9990234375 c 1x80
 189.705078125 194.620117188 189.99609375 392.286132812 190 592.82421875 c 0
 191.491210938 600.442382812 190.522460938 607.708984375 187.80859375 614.16796875 c 0
 183.3203125 627.5546875 172.469726562 635.6875 160.25 638.56640625 c 0
 147.322265625 642.540039062 132.690429688 640.418945312 121.51171875 628.90625 c 0
 118.859375 626.3828125 116.5546875 623.418945312 114.71875 620.013671875 c 0
 97.466796875 594.422851562 48.7587890625 564.9375 1 601 c 0
 -21 618 -46 585 -24 568 c 0x40
EndSplineSet
EndChar

StartChar: ltr106
Encoding: 106 106 61
Width: 500
GlyphClass: 2
Flags: MW
HStem: -40 40 -38 76
LayerCount: 2
Fore
SplineSet
-20 565 m 0x80
 47.712890625 527.081054688 197.750976562 382.3828125 407.302734375 516.521484375 c 1
 395.918945312 329.34765625 349.174804688 92.5224609375 280 0.0009765625 c 1x80
 225 0.0009765625 154 66.0009765625 63 38.0009765625 c 0
 12 23.0009765625 36 -53.9990234375 87 -37.9990234375 c 0x40
 168 -13.9990234375 229 -39.9990234375 300 -39.9990234375 c 0
 313 -39.9990234375 324 -33.9990234375 332 -23.9990234375 c 0
 408.033203125 77.7080078125 487.966796875 383.201171875 489.961914062 592.08203125 c 0
 491.225585938 598.497070312 490.6796875 604.934570312 488.7421875 610.9296875 c 0
 485.68359375 623.477539062 477.359375 631.927734375 467.208007812 636.28125 c 0
 455.572265625 642.318359375 441.158203125 642.834960938 427.7109375 633.658203125 c 0
 424.762695312 631.8515625 422.051757812 629.643554688 419.68359375 627.034179688 c 0
 219.315429688 449.2578125 66.638671875 563.208007812 1 601 c 0
 -23 615 -44 579 -20 565 c 0x80
EndSplineSet
EndChar

StartChar: ltr107
Encoding: 107 107 62
Width: 500
GlyphClass: 2
Flags: MW
HStem: -40 42 589 20G 598 42 608.288 21G
VStem: 111 78 410 80
LayerCount: 2
Fore
SplineSet
-20 565 m 0x9c
 31.0703125 536.2421875 75.2548828125 528.625976562 109.998046875 533.7421875 c 1
 109.998046875 498.999023438 l 2
 109.998046875 464.999023438 157.998046875 446.999023438 180.998046875 472.999023438 c 0
 222.998046875 522.999023438 225.998046875 597.999023438 299.998046875 597.999023438 c 0
 373.998046875 597.999023438 409.998046875 445.999023438 409.998046875 298.999023438 c 0
 409.998046875 151.999023438 373.998046875 1.9990234375 299.998046875 1.9990234375 c 2
 298.998046875 1.9990234375 l 2
 231.998046875 1.9990234375 177.998046875 49.9990234375 188.998046875 88.9990234375 c 0
 201.998046875 139.999023438 124.998046875 160.999023438 110.998046875 108.999023438 c 0
 93.998046875 43.9990234375 181.998046875 -40.0009765625 299.998046875 -40.0009765625 c 0
 383.998046875 -40.0009765625 489.998046875 45.9990234375 489.998046875 298.999023438 c 0
 489.998046875 551.999023438 383.998046875 639.999023438 299.998046875 639.999023438 c 2
 298.998046875 639.999023438 l 2xac
 228.29296875 639.999023438 195.895507812 614.240234375 189.997070312 608.885742188 c 1
 189.997070312 607.987304688 l 1
 189.950195312 608.243164062 189.901367188 608.498046875 189.849609375 608.751953125 c 1
 189.650390625 608.568359375 189.486328125 608.413085938 189.357421875 608.288085938 c 1
 189.484375 608.424804688 189.64453125 608.600585938 189.836914062 608.817382812 c 0
 188.772460938 613.96484375 186.578125 618.708007812 183.564453125 622.868164062 c 0
 179.551757812 628.890625 173.954101562 633.301757812 167.620117188 636.1015625 c 0
 156.33203125 641.571289062 142.693359375 642.215820312 131.094726562 635.5078125 c 0
 122.655273438 631.41796875 115.673828125 624.37109375 112.258789062 614.3671875 c 0
 96.2412109375 592.197265625 61.7548828125 566.940429688 1 601 c 0
 -23 615 -44 579 -20 565 c 0x9c
189.998046875 608.884765625 m 2
 189.947265625 608.837890625 189.8984375 608.794921875 189.8515625 608.751953125 c 1
 189.836914062 608.81640625 l 2
 189.888671875 608.874023438 189.942382812 608.934570312 189.998046875 608.999023438 c 1xcc
 189.998046875 608.884765625 l 2
EndSplineSet
EndChar

StartChar: ltr108
Encoding: 108 108 63
Width: 380
GlyphClass: 2
Flags: MW
HStem: 160 80<-26.5 31.5894>
LayerCount: 2
Fore
SplineSet
290 61.37109375 m 1
 211.918945312 141.254882812 64.9990234375 240 0 240 c 0
 -53 240 -53 160 0 160 c 0
 63.1787109375 160 228.678710938 68.3974609375 294.484375 -19.5703125 c 1
 311.346679688 -51.904296875 370 -45.380859375 370 0 c 2
 370 600 l 2
 370 653 290 653 290 600 c 2
 290 61.37109375 l 1
EndSplineSet
EndChar

StartChar: ltr109
Encoding: 109 109 64
Width: 470
GlyphClass: 2
Flags: MW
HStem: -40 41<115 200.5> 600 40<234 267>
VStem: 35 80<1 91 1 92.3403> 334 80<472.5 536>
LayerCount: 2
Fore
SplineSet
-20 565 m 0
 21.015625 541.963867188 69.607421875 555.546875 117.616210938 571.87109375 c 1
 -11.2236328125 434.07421875 35 184.680664062 35 0 c 0
 35 -22 53 -40 75 -40 c 0
 326 -40 404 -34 487 186 c 0
 506 236 432 264 413 214 c 0
 344 34 299 1 115 1 c 1
 115 181 3 496 234 600 c 1
 300 600 334 573 334 499 c 0
 334 446 414 446 414 499 c 0
 414 627 330 640 225 640 c 0
 158 640 67 563 1 601 c 0
 -23 615 -44 579 -20 565 c 0
EndSplineSet
EndChar

StartChar: ltr110
Encoding: 110 110 65
Width: 500
GlyphClass: 2
Flags: MW
VStem: 47 80<253 335.015>
LayerCount: 2
Fore
SplineSet
109.469726562 610.719726562 m 0
 92.3974609375 589.6171875 58.4384765625 568.799804688 1 601 c 0
 -23 615 -44 579 -20 565 c 0
 17.12109375 544.096679688 50.60546875 534.364257812 79.4697265625 532.572265625 c 1
 59.009765625 460.853515625 47 371.030273438 47 299 c 0
 47 193 73 51 116 -21 c 0
 132 -48 178 -43 188 -12 c 0
 259 207 271 491 325 553 c 1
 363 384 412 193 503 -16 c 1
 525 -52 578 -19 557 16 c 1
 470 214 431 404 386 609 c 0
 379 639 337 650 317 626 c 0
 228 523 215 229 159 56 c 1
 144 82 127 207 127 299 c 0
 127 375.971679688 129.799804688 484.443359375 150.041015625 547.109375 c 1
 165.059570312 555.590820312 176.543945312 567.096679688 184 580.000976562 c 0
 210.78125 623.998046875 148.825195312 662.505859375 119.754882812 625.52734375 c 0
 118.474609375 624.478515625 117.220703125 623.305664062 116 622.000976562 c 0
 113.78125 618.4609375 111.603515625 614.694335938 109.469726562 610.719726562 c 0
EndSplineSet
EndChar

StartChar: ltr111
Encoding: 111 111 66
Width: 470
GlyphClass: 2
Flags: MW
HStem: 598 42<263.001 299.001 299.001 300.001 257.001 337.501>
VStem: 110.462 79.5377 411 79
LayerCount: 2
Fore
SplineSet
190 100 m 2
 190.000976562 300 l 2
 190.000976562 447 226.000976562 598 300.000976562 598 c 0
 375.000976562 598 410.000976562 447 410.000976562 300 c 2
 411.000976562 -9 l 1
 338.000976562 -25 220.000976562 78 133.000976562 36 c 0
 85.0009765625 13 119.000976562 -59 167.000976562 -36 c 0
 250.000976562 4 350.000976562 -63 459.000976562 -39 c 0
 477.000976562 -35 490.000976562 -19 490.000976562 0 c 2
 490.000976562 300 l 2
 490.000976562 553 385.000976562 640 300.000976562 640 c 2
 299.000976562 640 l 2
 215.000976562 640 110.000976562 553 110.000976562 300 c 2
 110.462890625 207.073242188 l 1
 66.3681640625 240.487304688 8.369140625 247.139648438 -25 233 c 0
 -75 212 -44 139 5 159 c 0
 29.98828125 169.6015625 85.3662109375 173.895507812 110.782226562 142.791992188 c 1
 111 99 l 2
 112 46 191 47 190 100 c 2
EndSplineSet
EndChar

StartChar: ltr112
Encoding: 112 112 67
Width: 449
GlyphClass: 2
Flags: MW
HStem: -40 40 360 41.0024
VStem: 27 80<299.001 307.614 299.001 320.403> 216 70
LayerCount: 2
Fore
SplineSet
178 360 m 0
 231 361 285.997070312 451.001953125 285.997070312 499.001953125 c 2
 285.997070312 502.001953125 l 1
 279.375976562 585.591796875 240.5625 609.590820312 191.09765625 617.081054688 c 0
 187.672851562 620.08984375 182.97265625 622.001953125 176.998046875 622.001953125 c 0
 170.069335938 622.001953125 163.439453125 621.368164062 157.096679688 620.147460938 c 0
 152.8046875 620.303710938 149.142578125 619.24609375 146.166015625 617.381835938 c 0
 96.849609375 601.809570312 66.42578125 548.5625 48.673828125 483.616210938 c 1
 22.068359375 529.431640625 6.2529296875 582.716796875 -19.0009765625 611.000976562 c 0
 -37.0009765625 631.000976562 -68.0009765625 604.000976562 -50.0009765625 583.000976562 c 0
 -19.4091796875 549.131835938 1.3349609375 485.71875 37.98828125 435.147460938 c 1
 30.0703125 389.66015625 27 341.8046875 27 299.000976562 c 0
 26 178.000976562 111 -39.9990234375 246 -39.9990234375 c 2
 400 -40.9990234375 l 2
 422 -40.9990234375 440 -22.9990234375 440 -0.9990234375 c 2
 439 600.000976562 l 2
 439 653.000976562 359 653.000976562 359 600.000976562 c 2
 359 0.0009765625 l 1
 246 0.0009765625 l 2
 127 0.0009765625 106 222.000976562 107 299.000976562 c 0
 107 316.2265625 104.537109375 344.53515625 102.96484375 376.713867188 c 1
 123.376953125 366.348632812 147.342773438 360.140625 176.025390625 360.002929688 c 0
 176.66796875 359.9765625 177.326171875 360 178 360 c 0
164.688476562 578.895507812 m 1
 206.919921875 571.504882812 213.198242188 533.384765625 215.997070312 497.00390625 c 0
 215.997070312 481.015625 214.999023438 402.123046875 176.0859375 401.005859375 c 0
 145.577148438 401.16796875 121.416015625 409.469726562 101.68359375 422.83203125 c 1
 101.587890625 494.704101562 112.224609375 569.021484375 164.688476562 578.895507812 c 1
EndSplineSet
EndChar

StartChar: ltr113
Encoding: 113 113 68
Width: 500
GlyphClass: 2
Flags: MW
HStem: -39 78 599 41<224.999 323.126 220 349.121>
VStem: 35 80 410 80
LayerCount: 2
Fore
SplineSet
365 39 m 0
 248 10 225.999023438 97 114.999023438 24 c 1
 114.999023438 410 149.999023438 599 299.999023438 599 c 0
 398.243164062 599 409.056640625 509.454101562 409.999023438 437.524414062 c 2
 409.999023438 399 l 2
 409.999023438 377 429.999023438 366 449.999023438 366 c 0
 469.999023438 366 489.999023438 377 489.999023438 399 c 2
 490.999023438 599 l 2
 491.955078125 650.640625 417.921875 653.811523438 410.575195312 606.764648438 c 1
 382.604492188 627.733398438 346.251953125 640 300 640 c 0
 140 640 35 588 35 0 c 0
 35 -30 72 -50 97 -33 c 0
 240 61 278 -64 383 -39 c 0
 435 -26 416 51 365 39 c 0
EndSplineSet
EndChar

StartChar: ltr114
Encoding: 114 114 69
Width: 470
GlyphClass: 2
Flags: MW
VStem: 110 80
LayerCount: 2
Fore
SplineSet
465.877929688 634.76953125 m 0
 461.9140625 637.987304688 456.62109375 640.000976562 450 640.000976562 c 0
 377 640.000976562 352 599.000976562 253 616.000976562 c 0
 216 624.000976562 204 627.000976562 160 639.000976562 c 0
 135 645.000976562 110 626.000976562 110 600.000976562 c 2
 110 580.6953125 l 1
 73.3046875 582.958007812 32.91015625 571.794921875 0.9990234375 601.000976562 c 0
 -19.0009765625 619.000976562 -47.0009765625 589.000976562 -27.0009765625 570.000976562 c 0
 23.306640625 524.625 78.4794921875 581.418945312 110.682617188 490.82421875 c 1
 117.618164062 451.010742188 175.20703125 448.850585938 187.638671875 484.34375 c 0
 190.137695312 490.294921875 191.124023438 497.157226562 189.998046875 504.73828125 c 2
 189.998046875 587.000976562 l 1
 193.998046875 586.000976562 206.998046875 584.000976562 236.998046875 578.000976562 c 1
 237.998046875 578.000976562 l 1
 320.786132812 563.083984375 355.178710938 577.09375 399.259765625 585.178710938 c 1
 261.40625 396.1640625 183.130859375 242.736328125 110.999023438 -101.999023438 c 0
 99.9990234375 -153.999023438 177.999023438 -169.999023438 188.999023438 -117.999023438 c 0
 261.999023438 234.000976562 334.999023438 380.000976562 481.999023438 576.000976562 c 0
 502.541015625 599.110351562 487.64453125 627.165039062 465.877929688 634.76953125 c 0
EndSplineSet
EndChar

StartChar: ltr115
Encoding: 115 115 70
Width: 500
GlyphClass: 2
Flags: MW
HStem: 670 40
VStem: 196 68 410 80<245.904 600 245.904 245.904>
LayerCount: 2
Fore
SplineSet
72 278 m 1
 156 236 183 156 196 91 c 0
 206 46 275 61 264 107 c 0
 248 187 188 264 78 320 c 1
 50 324 44 282 72 278 c 1
-57 670 m 0
 186 695 343 258 411 -10 c 0
 411.13671875 -10.546875 411.280273438 -11.0859375 411.430664062 -11.6162109375 c 0
 412.163085938 -14.408203125 413.159179688 -16.9931640625 414.379882812 -19.3701171875 c 0
 425.703125 -42.482421875 453.076171875 -45.2431640625 471.705078125 -34.009765625 c 0
 473.947265625 -32.689453125 476.059570312 -31.1416015625 477.99609375 -29.3662109375 c 0
 486.772460938 -21.494140625 492.095703125 -9.724609375 490 4.92578125 c 2
 490 600 l 2
 490 653 410 653 410 600 c 2
 410 245.904296875 l 1
 302.919921875 502.016601562 132.118164062 729.924804688 -61 710 c 0
 -88 708 -84 667 -57 670 c 0
EndSplineSet
EndChar

StartChar: ltr116
Encoding: 116 116 71
Width: 450
GlyphClass: 2
Flags: MW
HStem: 156 78 165 70
VStem: 180 100<600.002 633.002 600.002 633.502> 185 80 188.305 81.9138
LayerCount: 2
Fore
SplineSet
270.21875 109.155273438 m 1x88
 277.01953125 278.057617188 279.180664062 450.1015625 280 600.001953125 c 0
 280 666.001953125 180 667.001953125 180 600.001953125 c 0xa0
 179.159179688 447.7265625 191.057617188 272.094726562 188.305664062 99.3056640625 c 1x88
 136.880859375 174.580078125 61.697265625 235.000976562 0 235.000976562 c 0
 -47 235.000976562 -47 165.000976562 0 165.000976562 c 0
 60.0068359375 165.000976562 143.16015625 101.349609375 185.575195312 13.12890625 c 0
 185.392578125 9.416015625 185.201171875 5.7060546875 185 2 c 0
 182 -51 262 -55 265 -2 c 0x50
 265.330078125 4.099609375 265.653320312 10.2109375 265.969726562 16.3330078125 c 0
 312.139648438 100.975585938 399.599609375 143.421875 457.999023438 156 c 0
 509.999023438 167 493.999023438 245 441.999023438 234 c 0
 383.604492188 222.321289062 318.129882812 173.356445312 270.21875 109.155273438 c 1x88
EndSplineSet
EndChar

StartChar: ltr117
Encoding: 117 117 72
Width: 500
GlyphClass: 2
Flags: MW
HStem: -40 41
VStem: 110 80
LayerCount: 2
Fore
SplineSet
-20 565 m 0
 31.0703125 536.2421875 75.255859375 528.626953125 109.999023438 533.743164062 c 1
 109.999023438 200 l 2
 109.999023438 86 179.999023438 -40 449.999023438 -40 c 0
 471.999023438 -40 489.999023438 -22 489.999023438 0 c 2
 489.999023438 525 l 2
 489.999023438 559.499023438 456.102539062 571.541992188 432.4375 561.127929688 c 0
 430.965820312 560.606445312 429.482421875 559.903320312 427.999023438 559 c 0
 323.999023438 492 265.999023438 460 226.999023438 365 c 0
 206.999023438 316 280.999023438 285 300.999023438 335 c 0
 328.620117188 401.123046875 348.53515625 446.229492188 409.999023438 494.946289062 c 1
 409.999023438 1.0009765625 l 1
 225.999023438 1.0009765625 189.999023438 112.000976562 189.999023438 200.000976562 c 2
 190.999023438 599.000976562 l 2
 191.439453125 622.76171875 176.00390625 636.260742188 158.493164062 639.328125 c 0
 149.215820312 641.465820312 139.234375 640.440429688 130.4765625 635.142578125 c 0
 122.645507812 631.034179688 116.1484375 624.31640625 112.688476562 614.96875 c 0
 96.8623046875 592.659179688 62.3037109375 566.6328125 1 601 c 0
 -23 615 -44 579 -20 565 c 0
EndSplineSet
EndChar

StartChar: ltr118
Encoding: 118 118 73
Width: 500
GlyphClass: 2
Flags: MW
HStem: 571 68
VStem: 258 82.4151 258 91
LayerCount: 2
Fore
SplineSet
-20 565 m 0xc0
 69.4912109375 514.606445312 137.844726562 529.137695312 171.288085938 563.330078125 c 1
 210.959960938 511.143554688 235.37109375 351.370117188 260.30859375 290.28515625 c 1
 265.857421875 167.626953125 261.928710938 128.69921875 258 1.0009765625 c 0
 256 -58.9990234375 347 -61.9990234375 349 -0.9990234375 c 0xa0
 352.908203125 127.967773438 346.31640625 169.114257812 340.416015625 292.178710938 c 1
 370.095703125 366.45703125 401.84375 557.6640625 459.000976562 571.000976562 c 0
 504.000976562 583.000976562 487.000976562 651.000976562 441.000976562 639.000976562 c 0
 373.000976562 624.000976562 308.000976562 400.000976562 300.000976562 382.000976562 c 1
 289.080078125 403.001953125 238.641601562 566.547851562 184.25390625 621.888671875 c 1
 169.719726562 643.30078125 133.766601562 650.26953125 116 620 c 0
 102 597 67 564 1 601 c 0
 -23 615 -44 579 -20 565 c 0xc0
EndSplineSet
EndChar

StartChar: ltr119
Encoding: 119 119 74
Width: 500
GlyphClass: 2
Flags: MW
HStem: -41 42 398 41 560 41 560 70 598 42<217.077 239 217.077 239>
VStem: 35 80 185 70<499 499> 410 80
LayerCount: 2
Fore
SplineSet
-20 565 m 0xe7
 15.7470703125 544.922851562 57.248046875 552.661132812 99.103515625 565.788085938 c 1
 61.71484375 512.251953125 34.9990234375 426.616210938 34.9990234375 298.999023438 c 0
 34.9990234375 45.9990234375 139.999023438 -40.0009765625 244.999023438 -40.0009765625 c 2
 277.999023438 -41.0009765625 l 1
 278.999023438 -41.0009765625 l 2
 383.999023438 -41.0009765625 489.999023438 45.9990234375 489.999023438 298.999023438 c 0
 489.999023438 429.53515625 459.119140625 505.764648438 419.060546875 548.977539062 c 1
 426.587890625 555.91796875 436.330078125 559.999023438 450 559.999023438 c 0
 497 559.999023438 497 629.999023438 450 629.999023438 c 0xd7
 415.11328125 629.999023438 402.301757812 606.254882812 389.672851562 574.186523438 c 1
 359.288085938 594.536132812 326.874023438 600.999023438 300 600.999023438 c 0xe7
 224 600.999023438 187 571.999023438 185 499.999023438 c 2
 185 497.999023438 l 2
 187 428.999023438 224 397.999023438 300 397.999023438 c 0
 307 397.999023438 313 398.999023438 319 402.999023438 c 0
 354.044921875 421.639648438 371.4375 448.203125 383.096679688 474.190429688 c 1
 400.100585938 428.287109375 410 367.194335938 410 299 c 0
 410 152 374 1 278 1 c 2
 277 1 l 1
 246 0 l 2
 150 0 115 152 115 299 c 0
 115 446 150 598 225 598 c 0
 253 598 253 640 225 640 c 0xcf
 209.154296875 640 192.61328125 636.94140625 176.1875 630.326171875 c 0
 117.9375 610.9453125 52.00390625 571.633789062 1 601 c 0
 -23 615 -44 579 -20 565 c 0xe7
364.209960938 514.106445312 m 1
 349.525390625 486.624023438 327.891601562 459.403320312 290 439 c 1
 255 439 256 473 255 499 c 0
 256 527 254 560 300 560 c 0xe7
 324.58984375 560 346.522460938 543.170898438 364.209960938 514.106445312 c 1
EndSplineSet
EndChar

StartChar: ltr120
Encoding: 120 120 75
Width: 500
GlyphClass: 2
Flags: MW
HStem: -38 76
LayerCount: 2
Fore
SplineSet
120 68 m 0
 210 235 217 398 249 515 c 1
 293 396 341 237 401 -3 c 1
 343 -6 230 67 138 38 c 0
 87 22 111 -54 162 -38 c 0
 248 -11 349 -46 452 -40 c 0
 477 -39 495 -14 489 10 c 0
 425 262 354 416 282 614 c 0
 269 647 215 645 205 611 c 0
 153 422 137 267 50 106 c 0
 25 59 95 21 120 68 c 0
EndSplineSet
EndChar

StartChar: ltr121
Encoding: 121 121 76
Width: 500
GlyphClass: 2
Flags: MW
HStem: 424 40 560 70 598 42
VStem: 110 92
LayerCount: 2
Fore
SplineSet
384 640 m 2xb0
 332.99609375 640.001953125 l 1
 331.99609375 640.001953125 l 2xb0
 233.99609375 638.001953125 232.99609375 424.001953125 332.99609375 424.001953125 c 0
 338.938476562 424.001953125 344.837890625 425.130859375 350.689453125 427.18359375 c 1
 311.267578125 300.204101562 224.598632812 145.231445312 201.998046875 110.000976562 c 1
 203.970703125 178.059570312 227.34765625 433.889648438 190.55859375 602.075195312 c 0
 190.474609375 610.732421875 187.219726562 618.561523438 182.029296875 624.8515625 c 0
 175.389648438 634.05859375 165.59765625 638.875976562 155.350585938 639.92578125 c 0
 146.935546875 641.190429688 138.130859375 639.827148438 130.313476562 635.04296875 c 0
 121.752929688 630.536132812 114.772460938 623.171875 111.59765625 613.46484375 c 0
 95.3017578125 591.5234375 60.931640625 567.40234375 1 601 c 0
 -23 615 -44 579 -20 565 c 0
 36.3994140625 533.241210938 84.4033203125 527.267578125 120.564453125 535.750976562 c 1
 140.844726562 375.125 112.676757812 155.403320312 109.999023438 1 c 0
 108.999023438 -36 163.999023438 -52 183.999023438 -21 c 0
 265.930664062 108.171875 392.5390625 339.227539062 427.493164062 493.610351562 c 1
 455.107421875 525.828125 480.833984375 557.586914062 503.999023438 560 c 0
 550.999023438 565 542.999023438 635 496.999023438 630 c 0xd0
 475.782226562 627.75 454.978515625 609.791015625 435.319335938 586.456054688 c 1
 433.48828125 599.860351562 429.798828125 611.485351562 424 621 c 0
 415.471679688 634.583007812 403.151367188 639.684570312 391.16796875 638.952148438 c 0
 389.02734375 639.626953125 386.637695312 640 384 640 c 2xb0
366.649414062 491.666992188 m 1
 353.880859375 475.147460938 342.52734375 464.002929688 332.99609375 464.002929688 c 2
 331.99609375 464.002929688 l 2
 313.99609375 464.002929688 312.99609375 598.002929688 331.99609375 598.002929688 c 2
 353.231445312 598.002929688 l 1
 353.688476562 591.880859375 355.795898438 585.453125 359.99609375 579.002929688 c 0
 371.91015625 559.073242188 372.84375 528.256835938 366.649414062 491.666992188 c 1
EndSplineSet
EndChar

StartChar: ltr122
Encoding: 122 122 77
Width: 450
GlyphClass: 2
Flags: MW
HStem: -40 42 161.768 48.9328 182 36
VStem: 334 80.1866
LayerCount: 2
Fore
SplineSet
162 182 m 1xb0
 209.924804688 196.873046875 272.71875 175.028320312 334 161.766601562 c 1
 334 117.999023438 l 2
 334 27.9990234375 298 1.9990234375 150 1.9990234375 c 2
 149 1.9990234375 l 2
 77 1.9990234375 102 60.9990234375 111 82.9990234375 c 0
 133 130.999023438 61 163.999023438 39 114.999023438 c 0
 10 52.9990234375 29 -40.0009765625 150 -40.0009765625 c 0
 336.364257812 -40.0009765625 412.668945312 -28.208984375 413.982421875 153.184570312 c 1
 434.786132812 154.478515625 454.395507812 159.66796875 471.999023438 170.999023438 c 0
 509.999023438 199.999023438 465.999023438 257.999023438 427.999023438 228.999023438 c 0
 423.528320312 226.095703125 418.919921875 223.590820312 414.185546875 221.44140625 c 1
 415 497.998046875 l 2
 415.427734375 521.106445312 400.838867188 534.508789062 383.928710938 538.048828125 c 0
 372.327148438 541.470703125 359.190429688 539.67578125 347.805664062 529.713867188 c 0
 346.0390625 528.252929688 344.39453125 526.619140625 342.901367188 524.8125 c 0
 277.610351562 456.092773438 67.62109375 552.275390625 0.9990234375 600.999023438 c 0
 -22.0009765625 616.999023438 -46.0009765625 583.999023438 -23.0009765625 567.999023438 c 0
 42.8369140625 519.612304688 222.561523438 431.5859375 334 441.671875 c 1
 334 210.700195312 l 1xd0
 270.598632812 214.908203125 199.482421875 236.768554688 138 218 c 1
 114 203 137 166 162 182 c 1xb0
EndSplineSet
EndChar

StartChar: ltr168
Encoding: 168 168 79
Width: 650
GlyphClass: 2
Flags: MW
VStem: 210 80<699 701> 219 60<751 753> 293 80<699 701> 302 60<755 757>
LayerCount: 2
Fore
SplineSet
373 701 m 1x20
 362 757 l 1
 361 797 301 795 302 755 c 1x10
 293 699 l 1
 294 646 374 647 373 701 c 1x20
290 701 m 1x80
 279 753 l 1
 278 793 218 791 219 751 c 1x40
 210 699 l 1
 211 646 291 647 290 701 c 1x80
EndSplineSet
EndChar

StartChar: ltr710
Encoding: 710 710 80
Width: 650
GlyphClass: 2
Flags: MW
HStem: 679 20G<250 250> 681 54<153 181>
LayerCount: 2
Fore
SplineSet
181 681 m 1x40
 250 699 l 1x80
 319 681 l 1
 355 661 384 716 347 735 c 2
 264 777 l 2
 253 783 247 783 236 777 c 2
 153 735 l 2
 116 716 145 661 181 681 c 1x40
EndSplineSet
EndChar

StartChar: ltr714
Encoding: 714 714 81
Width: 650
GlyphClass: 2
Flags: W
LayerCount: 2
Fore
SplineSet
315 736 m 1
 232 684 l 2
 198 660 234 608 268 632 c 1
 351 664 l 1
 399 688 363 760 315 736 c 1
EndSplineSet
EndChar

StartChar: ltr715
Encoding: 715 715 82
Width: 650
GlyphClass: 2
Flags: MW
HStem: 680 40
LayerCount: 2
Fore
SplineSet
166 680 m 0
 200 679 239 661 240 637 c 0
 243 584 323 588 320 641 c 0
 317 691 230 719 168 720 c 0
 141 721 140 681 166 680 c 0
EndSplineSet
EndChar

StartChar: ltr730
Encoding: 730 730 83
Width: 650
GlyphClass: 2
Flags: MW
HStem: 680.409 20G
LayerCount: 2
Fore
SplineSet
210 701 m 0
 210 663 242 631 281 631 c 0
 321 631 357 666 357 701 c 0
 357 738 321 772 281 772 c 2
 279 772 l 2
 242 772 210 740 210 701 c 0
282.196289062 710.279296875 m 1
 282.62109375 709.80078125 282.728515625 709.118164062 282.682617188 708.330078125 c 1
 282.54296875 708.935546875 282.381835938 709.583984375 282.196289062 710.279296875 c 1
280.229492188 700.41015625 m 1
 280.322265625 700.387695312 280.4140625 700.3671875 280.506835938 700.348632812 c 1
 279.688476562 697.467773438 283.749023438 692.000976562 280 692.000976562 c 0
 276.624023438 692.000976562 280.086914062 697.471679688 280.229492188 700.41015625 c 1
EndSplineSet
EndChar
